<svg fill="none" height="25" viewBox="0 0 25 25" width="25" xmlns="http://www.w3.org/2000/svg"><g fill="#fff"><path d="m.5682 11.3641h9.11975c.16646 0 .32405-.0727.43275-.1997.3196-.3757.6714-.7269 1.0432-1.0432.1265-.1082.1997-.2663.1997-.43276v-9.119752c0-.314062-.2541-.56819972-.5681-.56819972h-8.52275c-1.2529 0-2.27275 1.01926172-2.27275 2.27274172v8.52277c0 .314.254137.5681.5682.5681zm2.84089-6.24997h1.70455v-1.70455c0-.31406.25414-.5682.5682-.5682s.56815.25414.56815.5682v1.70455h1.70454c.31407 0 .5682.25414.5682.5682s-.25413.5682-.5682.5682h-1.70454v1.70454c0 .31407-.25414.56821-.5682.56821-.31407 0-.56815-.2542-.56815-.56826v-1.70455h-1.70455c-.31406 0-.5682-.25413-.5682-.56819 0-.31407.25414-.56815.5682-.56815z"/><path d="m12.7608 8.72851c.1632.1043.3673.11932.5416.03995 3.176-1.43986 6.9957-.88332 9.6246 1.35334.1054.0893.2364.1354.3685.1354.081 0 .162-.0172.2385-.0522.2009-.0932.3297-.2946.3297-.51603v-7.41574c0-1.25348-1.0199-2.27274172-2.2728-2.27274172h-8.5227c-.3141 0-.5682.25413772-.5682.56819972v7.682122c.0001.19304.0977.37282.2608.4777zm3.1483-3.61438h4.5455c.314 0 .5682.25414.5682.5682s-.2542.5682-.5682.5682h-4.5455c-.314 0-.5682-.25414-.5682-.5682s.2542-.5682.5682-.5682z"/><path d="m7.95453 17.046c0-1.2917.273-2.5507.81233-3.7431.0799-.1759.06546-.38-.03996-.5421-.10429-.162-.28407-.2602-.47716-.2602h-7.68154c-.314063 0-.5682.2541-.5682.5682v8.5227c0 1.2534 1.01985 2.2727 2.27275 2.2727h7.4152c.22196 0 .42285-.1287.51605-.3296.0921-.2014.0599-.4378-.0833-.6065-1.3971-1.6435-2.16617-3.7319-2.16617-5.8821zm-.16646 3.2427c-.11095.1109-.25637.1664-.40174.1664-.14536 0-.29073-.0555-.40174-.1664l-1.3028-1.3028-1.30281 1.3028c-.11096.1109-.25637.1664-.40174.1664s-.29073-.0555-.40174-.1664c-.22196-.222-.22196-.5816 0-.8035l1.30281-1.3028-1.30281-1.3028c-.22196-.2219-.22196-.5815 0-.8034.22196-.222.58152-.222.80343 0l1.3028 1.3028 1.30281-1.3028c.22196-.222.58152-.222.80343 0 .22196.222.22196.5815 0 .8034l-1.30281 1.3028 1.30281 1.3028c.22207.2219.22207.5815.0001.8035z"/><path d="m17.0456 9.09143c-4.3856 0-7.95454 3.56837-7.95454 7.95457 0 4.3861 3.56894 7.9545 7.95454 7.9545s7.9545-3.5683 7.9545-7.9545c0-4.3863-3.5689-7.95457-7.9545-7.95457zm2.8409 10.22727h-5.6818c-.3141 0-.5682-.2541-.5682-.5682 0-.314.2541-.5682.5682-.5682h5.6818c.3141 0 .5682.2542.5682.5682 0 .3141-.2541.5682-.5682.5682zm0-3.4091h-5.6818c-.3141 0-.5682-.2541-.5682-.5682 0-.314.2541-.5682.5682-.5682h5.6818c.3141 0 .5682.2542.5682.5682 0 .3141-.2541.5682-.5682.5682z"/></g></svg>