<svg fill="none" height="20" viewBox="0 0 20 20" width="20" xmlns="http://www.w3.org/2000/svg" xmlns:xlink="http://www.w3.org/1999/xlink"><clipPath id="a"><path d="m0 0h20v20h-20z"/></clipPath><g clip-path="url(#a)" fill="#b39c75"><path d="m19.6116 15.9032-2.2172-1.4783-1.9711-1.3138c-.3803-.253-.8916-.1701-1.1724.1904l-1.2196 1.5679c-.262.3402-.7333.438-1.109.23-.8275-.4603-1.8062-.8938-3.96544-3.0558-2.15927-2.16207-2.59548-3.13791-3.05582-3.96548-.20801-.3757-.11024-.84698.22999-1.10893l1.56792-1.21964c.36042-.28078.44343-.79198.19035-1.17241l-1.27343-1.91033-1.51861-2.277938c-.25848-.38772985-.77589-.504135-1.1755-.264489l-1.75138 1.050687c-.473317.27887-.821243.72917-.97171 1.25757-.47894 1.74619-.575501 5.59821 5.59787 11.77156 6.17336 6.1734 10.02506 6.0765 11.77126 5.5975.5284-.1504.9787-.4983 1.2575-.9717l1.0507-1.7513c.2397-.3997.1233-.917-.2644-1.1755z"/><path d="m11.3792 3.10337c3.236.00359 5.8584 2.62598 5.862 5.862 0 .19043.1544.34484.3449.34484.1904 0 .3448-.15437.3448-.34484-.004-3.61672-2.9349-6.54766-6.5516-6.55164-.1905 0-.3449.15437-.3449.34484 0 .19038.1544.3448.3448.3448z"/><path d="m11.379 5.17222c2.0939.00246 3.7906 1.69924 3.7931 3.79304 0 .19043.1543.34484.3448.34484.1904 0 .3448-.15437.3448-.34484-.0028-2.47454-2.0081-4.47986-4.4827-4.48272-.1904 0-.3448.15438-.3448.34484 0 .19047.1544.34484.3448.34484z"/><path d="m11.3792 7.24121c.9518.00114 1.723.77238 1.7241 1.72412 0 .19043.1544.34484.3449.34484.1904 0 .3448-.15437.3448-.34484-.0015-1.33244-1.0813-2.41223-2.4137-2.41376-.1905 0-.3449.15438-.3449.34484 0 .19043.1544.3448.3448.3448z"/></g></svg>