<svg fill="none" height="20" viewBox="0 0 20 20" width="20" xmlns="http://www.w3.org/2000/svg"><g fill="#b39c75"><path d="m.417454 3.71703c2.744926 2.32465 7.561406 6.41437 8.977036 7.68957.19003.1722.39386.2597.60546.2597.21115 0 .41465-.0867.60425-.258 1.4168-1.2765 6.2333-5.36662 8.9783-7.69127.1709-.14445.1969-.39836.0586-.57496-.3199-.40809-.7967-.64207-1.3078-.64207h-16.66667c-.51105 0-.987965.23398-1.30777.64211-.138359.17656-.112304.43047.058594.57492z"/><path d="m19.7583 4.9768c-.1477-.06875-.3214-.04476-.4443.06024-3.0441 2.58054-6.9292 5.88826-8.1515 6.98976-.6861.6193-1.6382.6193-2.32586-.0009-1.30289-1.1739-5.6657-4.88277-8.150624-6.9889-.123711-.105-.297852-.12817-.444336-.06024-.1472659.0684-.24168.21571-.24168.37805v10.47849c0 .9192.747461 1.6667 1.66668 1.6667h16.66672c.9191 0 1.6666-.7475 1.6666-1.6667v-10.47849c0-.16234-.0944-.31004-.2417-.37801z"/></g></svg>