<svg fill="none" height="50" viewBox="0 0 50 50" width="50" xmlns="http://www.w3.org/2000/svg"><path d="m47.875 11.125c-1.3563-2.4125-2.8281-2.85625-5.825-3.025-2.9937-.20312-10.5219-.2875-17.0437-.2875-6.5344 0-14.0657.08438-17.0563.28438-2.99063.17187-4.46562.61249-5.83438 3.02812-1.39687 2.4094-2.11562 6.5594-2.11562 13.8656v.0094.0094.0062c0 7.275.71875 11.4563 2.11562 13.8407 1.36876 2.4124 2.84063 2.8499 5.83126 3.0531 2.99372.175 10.52502.2781 17.05942.2781 6.5218 0 14.0499-.1031 17.0468-.275 2.9969-.2031 4.4688-.6406 5.825-3.0531 1.4094-2.3844 2.1219-6.5657 2.1219-13.8407 0 0 0-.0093 0-.0156 0 0 0-.0062 0-.0094 0-7.3093-.7125-11.4593-2.125-13.8687z" fill="#f44336"/><path d="m18.75 34.375v-18.75l15.625 9.375z" fill="#fafafa"/></svg>