<svg fill="none" height="20" viewBox="0 0 20 20" width="20" xmlns="http://www.w3.org/2000/svg" xmlns:xlink="http://www.w3.org/1999/xlink"><clipPath id="a"><path d="m0 0h20v20h-20z"/></clipPath><g clip-path="url(#a)" fill="#b39c75"><path d="m7.29175 14.6767v3.865c0 .27.17333.5091.43.5941.06416.0209.13.0309.195.0309.19499 0 .38333-.0917.50333-.255l2.26082-3.0767z"/><path d="m19.7376.115816c-.1917-.1358337-.4434-.154167-.6517-.0450004l-18.750029 9.7916644c-.221667.11584-.3525006.35252-.33416727.60162.01916667.25.18500027.4634.42083427.5442l5.212502 1.7817 11.10086-9.49168-8.59002 10.34918 8.73582 2.9858c.065.0217.1334.0333.2017.0333.1133 0 .2258-.0308.325-.0908.1583-.0967.2658-.2592.2933-.4417l2.2917-15.416618c.0342-.233333-.0642-.465-.2558-.601666z"/></g></svg>