<svg fill="none" height="20" viewBox="0 0 20 20" width="20" xmlns="http://www.w3.org/2000/svg" xmlns:xlink="http://www.w3.org/1999/xlink"><clipPath id="a"><path d="m0 0h20v20h-20z"/></clipPath><g clip-path="url(#a)"><path d="m12.0002 0h-4.00052c-3.86035 0-7.000901 3.14055-7.000901 7.0009v3.0004c0 2.7102 1.563051 5.1697 4.000511 6.3266v3.3413c0 .2901.36293.4418.5691.2357l2.90269-2.9027h3.52902c3.8604 0 7.0009-3.1406 7.0009-7.0009v-3.0004c0-3.86035-3.1405-7.0009-7.0008-7.0009z" fill="#b39c75"/><path d="m5.9994 16.3279c-2.43746-1.157-4.0005-3.6165-4.0005-6.3266v-3.00044c0-3.86031 3.14058-7.00086 7.0009-7.00086h-1.00012c-3.86035 0-7.000901 3.14055-7.000901 7.0009v3.0004c0 2.7102 1.563051 5.1697 4.000511 6.3266v3.3413c0 .2901.36293.4418.5691.2357l.43101-.431z" fill="#b39c75"/><path d="m15.0332 12.4258-.2997-1.6236c-.0248-.1342-.1287-.2397-.2625-.2665l-2.3573-.4714c-.1095-.0218-.2223.0124-.3012.0912l-.9577.9577c-1.61355-.723-2.5091-1.6205-3.29707-3.30335l.95461-.95457c.07879-.07883.11301-.19188.09117-.30117l-.47144-2.35735c-.02676-.13371-.13227-.23769-.26641-.26246l-1.62367-.29969c-.04445-.00816-.09023-.0073-.13438.00274-.42871.09738-.81988.3134-1.13125.62484-.53914.53914-.74519 1.32586-.59582 2.27512.25075 1.59398 1.03168 3.81229 2.4725 5.25889l.01969.0195c1.44547 1.4398 3.66377 2.2208 5.25787 2.4716.2008.0317.3942.0473.5797.0473.6912 0 1.2703-.218 1.6955-.6431.3113-.3115.5274-.7026.6248-1.1313.0099-.0441.0108-.0898.0026-.1344z" fill="#373838"/><path d="m8.18632 7.18125.32593-.32598.00036-.00035-.32633.32629z" fill="#e5e5e5"/><path d="m11.8125 10.1551-.3291.3292h.0001l.3291-.3291z" fill="#e5e5e5"/><g fill="#373838"><path d="m13.3387 13.7059c-.1855 0-.3789-.0157-.5797-.0473-1.594-.2508-3.81233-1.0318-5.25784-2.4716l-.01969-.0195c-1.44082-1.44663-2.22176-3.66491-2.4725-5.25889-.12066-.76692-.0091-1.42766.3225-1.93754-.12699.08473-.24617.18191-.35535.29109-.53914.53914-.74519 1.32586-.59582 2.27512.25074 1.59398 1.03168 3.81222 2.4725 5.25882l.01969.0196c1.44547 1.4398 3.66381 2.2208 5.25781 2.4716.2009.0316.3943.0473.5797.0473.6912 0 1.2703-.218 1.6955-.6432.1092-.1092.2064-.2283.2911-.3553-.3765.2449-.8351.3698-1.3579.3698z"/><path d="m10.6669 5.66739c-.1841 0-.3334.14926-.3334.33336s.1493.33336.3334.33336c.7353 0 1.3335.5982 1.3335 1.33351 0 .18164.1517.33336.3333.33336.1817 0 .3334-.15172.3334-.33336 0-1.10297-.8973-2.00023-2.0002-2.00023z"/><path d="m10.6668 4.33389c-.1233 0-.2478.00684-.37.02032-.183.02019-.31495.18492-.2948.36796.0202.18305.1853.31469.368.29481.098-.01082.1978-.01633.2968-.01633 1.4706 0 2.667 1.19641 2.667 2.66699 0 .09903-.0055.19887-.0163.29684-.02.18051.1142.34809.2948.36797.1805.01988.348-.11422.3679-.29481.0135-.12218.0203-.24664.0203-.37 0-1.8382-1.4955-3.33375-3.3337-3.33375z"/><path d="m10.6673 3.0004c-.1192 0-.2398.00453-.3586.01355-.1836.01391-.32115.17406-.3072.35762.0138.18359.1745.32117.3576.30726.102-.00777.2058-.01168.3082-.01168 2.2059 0 4.0005 1.79461 4.0005 4.00051 0 .31211-.036.62282-.107.92344-.0408.17227.0653.35133.2361.39812.1798.04922.3699-.06347.4127-.24476.0829-.35082.1249-.71309.1249-1.0768 0-2.57355-2.0937-4.66726-4.6672-4.66726z"/></g></g></svg>