<svg fill="none" height="25" viewBox="0 0 25 25" width="25" xmlns="http://www.w3.org/2000/svg" xmlns:xlink="http://www.w3.org/1999/xlink"><clipPath id="a"><path d="m0-.000977h25v25h-25z"/></clipPath><g clip-path="url(#a)"><path d="m24.4468 6.17476.0313.20416c-.3021-1.07187-1.1177-1.89896-2.1542-2.2l-.0219-.00521c-1.9489-.52916-9.7916-.52916-9.7916-.52916s-7.82296-.01042-9.79171.52916c-1.05625.30625-1.872916 1.13334-2.169791 2.18334l-.005209.02187c-.728125 3.80318-.733333 8.37288.032292 12.44478l-.032292-.2062c.302084 1.0719 1.11771 1.8989 2.15417 2.2l.02187.0052c1.94688.5302 9.79167.5302 9.79167.5302s7.8219 0 9.7917-.5302c1.0573-.3063 1.8739-1.1333 2.1708-2.1833l.0052-.0219c.3313-1.7688.5208-3.8042.5208-5.8834 0-.076 0-.1531-.001-.2302.001-.0708.001-.1552.001-.2396 0-2.0802-.1895-4.11558-.5531-6.08954zm-14.4385 10.12704v-7.59683l6.5271 3.80413z" fill="#b39c75"/></g></svg>