<svg fill="none" height="100" viewBox="0 0 92 100" width="92" xmlns="http://www.w3.org/2000/svg" xmlns:xlink="http://www.w3.org/1999/xlink"><filter id="a" color-interpolation-filters="sRGB" filterUnits="userSpaceOnUse" height="100" width="100" x="-4" y="0"><feFlood flood-opacity="0" result="BackgroundImageFix"/><feColorMatrix in="SourceAlpha" type="matrix" values="0 0 0 0 0 0 0 0 0 0 0 0 0 0 0 0 0 0 127 0"/><feOffset/><feGaussianBlur stdDeviation="5"/><feColorMatrix type="matrix" values="0 0 0 0 1 0 0 0 0 0.815686 0 0 0 0 0.490196 0 0 0 0.5 0"/><feBlend in2="BackgroundImageFix" mode="normal" result="effect1_dropShadow"/><feBlend in="SourceGraphic" in2="effect1_dropShadow" mode="normal" result="shape"/></filter><g fill="#ffd07d" filter="url(#a)"><path d="m47.0445 53.6606c-.148-.032-.2999-.0378-.4498-.0154-1.5025-.1749-2.636-1.4461-2.6386-2.9583 0-.7247-.5875-1.3122-1.3122-1.3122s-1.3122.5875-1.3122 1.3122c.0038 2.5252 1.6928 4.737 4.1276 5.4053v1.3122c0 .7247.5876 1.3123 1.3122 1.3123.7247 0 1.3123-.5876 1.3123-1.3123v-1.2328c2.8103-.5882 4.7203-3.2056 4.4249-6.0613-.296-2.8558-2.702-5.026-5.5731-5.0266-1.6454 0-2.9795-1.3341-2.9795-2.9795s1.3341-2.9794 2.9795-2.9794 2.9794 1.334 2.9794 2.9794c0 .7247.5876 1.3123 1.3122 1.3123.7247 0 1.3123-.5876 1.3123-1.3123-.0039-2.6513-1.8614-4.9381-4.4557-5.4853v-1.1944c0-.7246-.5876-1.3122-1.3123-1.3122-.7246 0-1.3122.5876-1.3122 1.3122v1.2745c-2.7077.7394-4.4506 3.3683-4.0776 6.1504.3729 2.7821 2.7468 4.8587 5.5539 4.8581 1.6236 0 2.948 1.3 2.9775 2.923.0301 1.623-1.2463 2.9711-2.8686 3.0301z"/><path d="m27.9067 46.4964c0 10.5094 8.5193 19.0287 19.0287 19.0287 10.5093 0 19.0286-8.5193 19.0286-19.0287s-8.5193-19.0286-19.0286-19.0286c-10.5043.0115-19.0165 8.5244-19.0287 19.0286zm19.0287-16.4042c9.06 0 16.4041 7.3442 16.4041 16.4042s-7.3441 16.4042-16.4041 16.4042c-9.0601 0-16.4042-7.3442-16.4042-16.4042.0103-9.0555 7.3486-16.3939 16.4042-16.4042z"/><path d="m72.4331 68.76-10.2794 4.8568c-1.4192-2.6398-4.1417-4.3198-7.1378-4.4044l-9.4893-.2608c-1.5025-.0429-2.9769-.4235-4.3128-1.1136l-.9656-.5004c-4.9439-2.5771-10.8368-2.5707-15.7756.0166l.0602-2.1874c.0199-.7247-.551-1.3283-1.2757-1.3481l-10.4056-.2865c-.7246-.0198-1.3276.5511-1.3474 1.2757l-.6286 22.8347c-.0199.7246.551 1.3282 1.2757 1.3481l10.4056.2864h.0359c.7112 0 1.293-.5658 1.3122-1.2764l.0301-1.0924 2.7033-1.4475c1.0611-.5709 2.3015-.7067 3.4606-.3786l16.1428 4.5306c.0282.0083.0563.0148.0852.0212 1.1668.2441 2.356.3665 3.5477.3658 2.5246.0013 5.0196-.5427 7.3141-1.5961.0563-.0256.1108-.0557.1627-.0897l23.4055-15.1393c.5831-.3774.7715-1.1431.43-1.7479-1.7377-3.0833-5.5918-4.2577-8.7538-2.6668zm-58.8979 17.6434.5562-20.2115 7.7817.214-.5561 20.2121zm42.4713-.3435c-2.8506 1.2866-6.0345 1.6416-9.0985 1.0156l-16.0991-4.5191c-1.8121-.512-3.7516-.2999-5.4092.5914l-1.3814.74.3697-13.4382c4.3775-2.9115 9.9917-3.2107 14.6537-.7817l.9656.5005c1.6877.8714 3.549 1.3519 5.4475 1.407l9.49.2608c2.6655.0769 4.9292 1.9748 5.47 4.5864l-14.1353-.3902c-.7247-.0199-1.3276.5517-1.3481 1.2757-.0199.7247.5516 1.3282 1.2757 1.3481l15.5994.4293h.0365c.7106-.0006 1.2917-.5664 1.3109-1.2763.016-.5703-.0262-1.1412-.1268-1.7025l10.5433-4.9817c.0103-.0045.0205-.0096.0308-.0148 1.4954-.7567 3.3036-.5036 4.5338.635z"/><path d="m48.2478 23.7784v-12.4662c0-.7246-.5876-1.3122-1.3123-1.3122s-1.3122.5876-1.3122 1.3122v12.4662c0 .7247.5875 1.3123 1.3122 1.3123s1.3123-.5876 1.3123-1.3123z"/><path d="m58.0893 23.7786v-5.9051c0-.7247-.5875-1.3122-1.3122-1.3122s-1.3123.5875-1.3123 1.3122v5.9051c0 .7246.5876 1.3122 1.3123 1.3122s1.3122-.5876 1.3122-1.3122z"/><path d="m38.406 23.7786v-5.9051c0-.7247-.5876-1.3122-1.3123-1.3122-.7246 0-1.3122.5875-1.3122 1.3122v5.9051c0 .7246.5876 1.3122 1.3122 1.3122.7247 0 1.3123-.5876 1.3123-1.3122z"/></g></svg>