<svg fill="none" height="86" viewBox="0 0 76 86" width="76" xmlns="http://www.w3.org/2000/svg" xmlns:xlink="http://www.w3.org/1999/xlink"><filter id="a" color-interpolation-filters="sRGB" filterUnits="userSpaceOnUse" height="90" width="90" x="-7" y="-2"><feFlood flood-opacity="0" result="BackgroundImageFix"/><feColorMatrix in="SourceAlpha" type="matrix" values="0 0 0 0 0 0 0 0 0 0 0 0 0 0 0 0 0 0 127 0"/><feOffset/><feGaussianBlur stdDeviation="5"/><feColorMatrix type="matrix" values="0 0 0 0 1 0 0 0 0 0.815686 0 0 0 0 0.490196 0 0 0 0.5 0"/><feBlend in2="BackgroundImageFix" mode="normal" result="effect1_dropShadow"/><feBlend in="SourceGraphic" in2="effect1_dropShadow" mode="normal" result="shape"/></filter><g fill="#ffd07d" filter="url(#a)"><path d="m64.6328 20.2725c-7.0383-.1641-22.3158-5.6946-25.9476-9.3888-.1835-.1771-.4285-.276-.6836-.276-.255 0-.5001.0989-.6836.276-3.6312 3.6942-18.9093 9.222-25.9475 9.3888-.2496.0063-.4868.1098-.6611.2885s-.2718.4184-.2719.668c0 20.5198 3.2266 42.992 27.1622 54.0859.1261.0584.2635.0886.4025.0886s.2763-.0302.4025-.0886c23.9312-11.0961 27.1578-33.5661 27.1578-54.0859 0-.2491-.0972-.4883-.2708-.6669s-.4099-.2825-.6589-.2896zm-26.6328 53.1158c-22.2469-10.5432-25.5527-31.7007-25.6484-51.2493 7.4172-.5567 21.0224-5.5021 25.6484-9.2969 4.6266 3.7937 18.2317 8.7391 25.6484 9.2969-.0957 19.5486-3.401 40.7061-25.6484 51.2493z"/><path d="m45.5652 21.2021c3.465 1.3977 7.0205 2.5596 10.6422 3.4775.2451.0586.5034.018.7188-.1127.2155-.1308.3706-.3412.4318-.5857s.0235-.5032-.1048-.72c-.1284-.2169-.3372-.3743-.5809-.4382-3.5361-.8965-7.0076-2.0309-10.3906-3.3956-.2354-.0951-.4989-.0929-.7325.0063-.2337.0991-.4185.287-.5136.5223s-.0929.4988.0062.7325.287.4184.5224.5136z"/><path d="m53.8138 43c.0022-2.7571-.7213-5.4663-2.0978-7.8553-.0305-.0728-.07-.1415-.1176-.2045-2.0552-3.4563-5.3453-6.0039-9.2061-7.1285-.0383-.014-.0776-.0253-.1176-.0339-2.796-.7893-5.7559-.7893-8.552 0-.0379.0086-.0754.0194-.1121.0322-3.8615 1.1242-7.1525 3.6719-9.2083 7.1286-.0483.0639-.0884.1338-.1192.2078-1.3741 2.3893-2.0973 5.0974-2.0973 7.8536 0 2.7563.7232 5.4644 2.0973 7.8537.0308.074.0709.1438.1192.2078 2.0588 3.4604 5.3554 6.0095 9.2225 7.1313.0388.0138.0784.0252.1187.0339 2.7842.7824 5.7301.7824 8.5143 0 .0397-.0084.0788-.0196.117-.0334 3.868-1.1219 7.1651-3.6718 9.2236-7.1334.0476-.063.0871-.1317.1176-.2045 1.3765-2.389 2.1-5.0982 2.0978-7.8554zm-14.8569 13.8633v-5.414h4.9995c-.5016 1.8015-1.3292 3.4958-2.4418 4.999-.8377.2181-1.6941.357-2.5577.415zm-4.4713-.4145c-1.1129-1.503-1.9407-3.1974-2.4423-4.999h4.9995v5.4141c-.8635-.0581-1.7197-.197-2.5572-.4151zm-10.3485-12.4917h4.8393c.0444 1.874.2532 3.7406.624 5.5781h-3.8632c-.9231-1.7248-1.4686-3.6263-1.6001-5.5781zm1.6001-7.4922h3.8615c-.3701 1.8376-.5784 3.7041-.6223 5.5781h-4.8393c.1314-1.952.6769-3.8537 1.6001-5.5787zm11.3056-7.3281v5.414h-4.9995c.5015-1.8016 1.3293-3.496 2.4423-4.999.8375-.218 1.6937-.357 2.5572-.415zm4.4718.4145c1.1125 1.5032 1.9401 3.1975 2.4418 4.999h-4.9995v-5.4141c.8636.058 1.72.197 2.5577.4151zm10.3485 12.4917h-4.8398c-.0446-1.874-.2534-3.7405-.624-5.5781h3.862c.9233 1.7248 1.4693 3.6262 1.6018 5.5781zm-6.7539 0h-6.1523v-5.5781h5.4868c.3935 1.8348.6163 3.7022.6655 5.5781zm-8.0664-5.5787v5.5782h-6.1524c.0494-1.876.2728-3.7434.6672-5.5782zm-6.1524 7.4928h6.1524v5.5781h-5.4863c-.3939-1.8348-.6169-3.7022-.6661-5.5781zm8.0676 5.5781v-5.5781h6.1512c-.0495 1.876-.2729 3.7433-.6672 5.5781zm8.0653-5.5781h4.8398c-.132 1.9517-.6775 3.8531-1.6001 5.5781h-3.8621c.37-1.8376.5783-3.7041.6224-5.5781zm2.0004-9.4063h-3.0756c-.3612-1.3231-.8498-2.6081-1.4591-3.8368 1.7693.9393 3.3163 2.2475 4.5364 3.8363zm-17.5131-3.8374c-.6093 1.2287-1.0978 2.5137-1.4585 3.8369h-3.0778c1.22-1.589 2.767-2.8974 4.5363-3.8369zm-4.5391 20.7364h3.0773c.361 1.3231.8495 2.6081 1.4585 3.8369-1.7681-.94-3.3139-2.2484-4.533-3.8369zm17.5154 3.8369c.609-1.2288 1.0975-2.5138 1.4585-3.8369h3.0772c-1.219 1.5886-2.7648 2.8971-4.533 3.8369z"/></g></svg>