<svg fill="none" height="90" viewBox="0 0 90 90" width="90" xmlns="http://www.w3.org/2000/svg" xmlns:xlink="http://www.w3.org/1999/xlink"><filter id="a" color-interpolation-filters="sRGB" filterUnits="userSpaceOnUse" height="90" width="90" x="0" y="0"><feFlood flood-opacity="0" result="BackgroundImageFix"/><feColorMatrix in="SourceAlpha" type="matrix" values="0 0 0 0 0 0 0 0 0 0 0 0 0 0 0 0 0 0 127 0"/><feOffset/><feGaussianBlur stdDeviation="5"/><feColorMatrix type="matrix" values="0 0 0 0 1 0 0 0 0 0.815686 0 0 0 0 0.490196 0 0 0 0.5 0"/><feBlend in2="BackgroundImageFix" mode="normal" result="effect1_dropShadow"/><feBlend in="SourceGraphic" in2="effect1_dropShadow" mode="normal" result="shape"/></filter><clipPath id="b"><path d="m10 10h70v70h-70z"/></clipPath><g filter="url(#a)"><g clip-path="url(#b)" fill="#ffd07d"><path d="m16.5625 53.7505h2.1875v19.6873h-2.1875z"/><path d="m20.9375 53.7505h2.1875v19.6873h-2.1875z"/><path d="m25.3125 53.7505h2.1875v19.6873h-2.1875z"/><path d="m29.6873 69.0627h2.1875v4.375h-2.1875z"/><path d="m34.0623 69.0627h2.1875v4.375h-2.1875z"/><path d="m76.0104 61.2974-3.2539-2.973c.0272-.4166.0416-.8278.0416-1.2305 0-.4021-.0144-.8133-.0416-1.2294l3.9178-3.5808-1.4676-4.5047-5.27-.5907c-.4374-.6921-.9197-1.3549-1.4436-1.984l1.0644-5.1952-3.835-2.7947-4.6143 2.6131c-.762-.3071-1.5434-.5629-2.3396-.7658l-2.2148-4.8813h-4.6953l-2.2148 4.8813c-.7962.2029-1.5775.4587-2.3396.7658l-1.2107-.6847v-27.1416c0-1.1045-.8955-2-2-2h-32.0934c-1.1046 0-2 .8955-2 2v65.9993c0 1.1045.8954 2 2 2h32.0934c1.1045 0 2-.8955 2-2v-2.956l1.2117-.6868c.7616.3071 1.5429.5629 2.3386.7658l2.2148 4.877h4.6932l2.2147-4.8818c.7963-.2029 1.5776-.4587 2.3397-.7653l3.756 2.1271c3.1813 2.438 7.5595 2.5886 10.9011.3755l1.3127-.8663-6.0925-4.4614 2.6505-3.6182 5.9509 4.3594.29-1.7554c.587-3.56-.9137-7.1419-3.8633-9.2199zm-28.842-19.0309.501-.219c.9612-.4187 1.961-.7439 2.9848-.9714l.534-.118 2.078-4.5838h1.8713l2.078 4.5838.5341.118c1.0238.2275 2.023.5527 2.9848.9714l.501.219 4.4182-2.5015c.511.3402 1.0099.7033 1.49 1.0863l-1.0206 4.9763.3621.409c.6953.7851 1.3143 1.6353 1.8473 2.5384l.2777.4694 5.05.5634c.2184.572.4048 1.1547.5677 1.7432l-3.7443 3.427.0529.5469c.0502.5335.0753 1.0627.0753 1.5728 0 .5094-.0251 1.0387-.0753 1.5727l-.0529.5469.3952.3616c-.1095 0-.2067-.0161-.3129-.0161-1.3426 0-2.6698.2863-3.8927.8401l-2.7344-1.8932c.5586-3.6994-1.0382-7.3934-4.1154-9.5206-3.0767-2.1276-7.0965-2.3172-10.3601-.4886l-2.4443-1.6898c.3129-1.6133.188-3.2812-.361-4.8299zm14.6923 14.8002-10.3173-7.1323c2.3423-.8913 4.9731-.5725 7.0345.8524 2.0614 1.4253 3.2892 3.7741 3.2828 6.2799zm-49.6732-44.878h31.7184v6.5624h-20.781v-2.1874h-10.9374zm0 6.5624h8.7499v2.1875h-8.7499zm0 4.375h10.9374v-2.1875h20.781v8.7499h-20.781v-2.1875h-10.9374zm0 6.5624h8.7499v2.1875h-8.7499zm31.7184 48.1245h-31.7184v-43.7495h10.9374v-2.1875h20.781v6.0273l-.0668-.0369c-3.1915-2.7124-7.7918-2.988-11.2839-.6761l-1.3127.8663 6.0924 4.4614-2.6505 3.6182-5.9488-4.36-.2894 1.7555c-.5832 3.5268.8854 7.0788 3.7885 9.1643l-.0208.024 3.4388 3.1435c-.0262.4128-.0406.824-.0406 1.2293 0 .4059.0144.8182.0406 1.2294l-3.9179 3.5808.1544.6292c.2729 1.1188.6296 2.2157 1.067 3.2812l.2473.5981 5.2722.5875c.4373.6921.9196 1.3549 1.4435 1.984l-1.0644 5.1952.4935.4203c.879.7456 1.812 1.4254 2.7909 2.0332l.5469.3412 1.2198-.6916zm17.3359-5.8922-.501.219c-.9613.4192-1.961.7444-2.9848.9709l-.5341.1196-2.0812 4.5827h-1.8713l-2.078-4.5827-.5372-.1207c-1.0238-.2264-2.023-.5517-2.9838-.9709l-.5009-.219-4.4188 2.5026c-.51-.3391-1.0072-.7012-1.4905-1.0863l1.0206-4.9763-.3621-.409c-.6953-.7851-1.3138-1.6348-1.8473-2.5373l-.2777-.4705-5.05-.5634c-.219-.5709-.4037-1.1536-.5677-1.7432l3.7506-3.4281-.0528-.5468c-.0492-.5261-.0743-1.0553-.0743-1.5728s.0251-1.0457.0743-1.5728l.0528-.5469-.5468-.5009c.1244 0 .2478.0187.3749.0187 1.3186-.0006 2.6227-.2772 3.8281-.8118l2.8961 2.0027c-.0694.4657-.1062.9357-.1095 1.4067-.0149 3.4852 1.8217 6.7162 4.8241 8.4861 3.003 1.7698 6.7195 1.812 9.7609.1105l2.3429 1.6187c-.0737.4118-.1196.8284-.1367 1.246-.0118.1533-.0208.3007-.0208.4374 0 .3044.0176.6051.0459.9025.008.0887.0229.1736.0342.2601.0245.2147.0566.4267.0961.6366.0176.0876.0384.1741.0582.2617.0465.2136.1004.424.1618.6307.0219.07.0427.1399.0657.2088.0294.0945.0534.1896.086.2815zm-14.6913-14.8002 10.3163 7.1296c-2.3418.8919-4.9726.573-7.034-.8518-2.0614-1.4249-3.2887-3.7731-3.2823-6.2789zm26.6097 7.7358-5.2348 7.1466 5.1606 3.7801c-2.3953.887-5.0805.4459-7.0655-1.1605-.1458-.117-.2815-.242-.4161-.3675-.0838-.0801-.1682-.1596-.2494-.244-.1367-.1421-.2702-.2868-.3936-.4374-.0876-.1095-.1671-.219-.2483-.3285-.0646-.0886-.1314-.1773-.1923-.2691-.079-.1191-.1511-.2425-.2189-.3674-.0545-.093-.1095-.1859-.1576-.282-.0646-.1239-.1244-.2505-.1826-.3787-.047-.1089-.0908-.2109-.1335-.3193-.0428-.1079-.0951-.2462-.1367-.3728-.0417-.1271-.0754-.2526-.109-.3797-.0342-.1266-.0635-.2286-.0886-.3445-.0342-.1575-.0583-.3183-.0823-.478-.0133-.0929-.0315-.1847-.0427-.2787-.0283-.2606-.0427-.5223-.0438-.784 0-.1565.0219-.3162.0331-.4748.0369-.3482.0993-.7503.1597-1.0937.024-.1031.0347-.2056.0619-.3087l.2003-.7434-22.0323-15.2285-.5885.314c-2.1266 1.1328-4.6778 1.1333-6.8055.0022-2.1276-1.1317-3.553-3.2471-3.8035-5.6439l4.6057 3.379 5.238-7.1457-5.1606-3.7789c2.5507-.9554 5.4223-.3968 7.4282 1.4462 2.0053 1.8425 2.8053 4.6564 2.0689 7.2786l-.2078.7482 21.9907 15.1964.5917-.3284c2.1282-1.1552 4.6922-1.1712 6.8353-.0438 2.1427 1.1279 3.5809 3.2513 3.8329 5.6594z"/></g></g></svg>