<svg fill="none" height="80" viewBox="0 0 80 80" width="80" xmlns="http://www.w3.org/2000/svg" xmlns:xlink="http://www.w3.org/1999/xlink"><filter id="a" color-interpolation-filters="sRGB" filterUnits="userSpaceOnUse" height="80" width="80" x="0" y="0"><feFlood flood-opacity="0" result="BackgroundImageFix"/><feColorMatrix in="SourceAlpha" type="matrix" values="0 0 0 0 0 0 0 0 0 0 0 0 0 0 0 0 0 0 127 0"/><feOffset/><feGaussianBlur stdDeviation="5"/><feColorMatrix type="matrix" values="0 0 0 0 1 0 0 0 0 0.815686 0 0 0 0 0.490196 0 0 0 0.5 0"/><feBlend in2="BackgroundImageFix" mode="normal" result="effect1_dropShadow"/><feBlend in="SourceGraphic" in2="effect1_dropShadow" mode="normal" result="shape"/></filter><g fill="#ffd07d" filter="url(#a)"><path d="m69.985 10.9257c-.0064-.0679-.0199-.1349-.0403-.2-.0154-.0598-.0365-.1181-.0629-.174-.0295-.0541-.064-.1052-.1032-.1528-.0407-.0552-.0872-.1059-.1386-.1513-.0196-.0166-.0296-.0399-.0506-.0553-.0321-.0171-.0652-.0323-.099-.0456-.1163-.071-.2477-.1138-.3834-.1251-.0351-.0093-.0709-.0166-.107-.0216h-31c-.0262 0-.0481.0129-.0736.0149-.0686.0064-.1362.02-.2017.0408-.0594.0153-.1172.0363-.1726.0625-.0543.0295-.1055.064-.1532.1033-.0552.0408-.1059.0872-.1513.1386-.0166.0196-.0399.0297-.0553.0506l-26.9999 37c-.0171.0321-.0323.0652-.0456.099-.0707.116-.1136.2469-.125.3824-.0094.0355-.0166.0716-.0218.1079v21c0 .5523.4477 1 1 1h30.9999c.2918-.0171.5649-.15.7585-.369.0143-.0171.0358-.0233.0492-.0416l27-37c.0171-.0321.0323-.0651.0456-.099.0707-.116.1136-.2469.125-.3824.0094-.0355.0166-.0716.0218-.1079v-21.0001c0-.0264-.013-.0484-.015-.0743zm-28.985 57.0743h-29v-19h29.0001v19zm.492-21h-28.5246l25.5406-35h28.5246zm26.508-15.3257-25 34.2592v-17.6078l25-34.2592z"/><path d="m14.0553 65.2743c.056.1837.1609.3486.3035.4773.0197.0168.0299.0404.0512.056.0418.0254.0852.0476.1302.0663.0348.0206.0711.039.1082.0551.1116.0446.2303.0687.3504.071l.0005-.0001.0005.0001h23.0001c.5523 0 .9999-.4477.9999-1v-13c0-.5523-.4476-1-.9999-1h-22.9999c-.5523 0-1 .4477-1 1v12.9999c0 .0263.0129.0483.015.0741.0063.0681.0199.1351.0403.2003zm22.9446-12.2744v11.0001h-20.0318l8.0302-11.0001zm-21 0h6.522l-6.522 8.934z"/></g></svg>