<svg fill="none" height="90" viewBox="0 0 90 90" width="90" xmlns="http://www.w3.org/2000/svg" xmlns:xlink="http://www.w3.org/1999/xlink"><filter id="a" color-interpolation-filters="sRGB" filterUnits="userSpaceOnUse" height="90" width="90" x="0" y="0"><feFlood flood-opacity="0" result="BackgroundImageFix"/><feColorMatrix in="SourceAlpha" type="matrix" values="0 0 0 0 0 0 0 0 0 0 0 0 0 0 0 0 0 0 127 0"/><feOffset/><feGaussianBlur stdDeviation="5"/><feColorMatrix type="matrix" values="0 0 0 0 1 0 0 0 0 0.815686 0 0 0 0 0.490196 0 0 0 0.5 0"/><feBlend in2="BackgroundImageFix" mode="normal" result="effect1_dropShadow"/><feBlend in="SourceGraphic" in2="effect1_dropShadow" mode="normal" result="shape"/></filter><g fill="#ffd07d" filter="url(#a)"><path d="m68.3333 22.3597v-6.5264c-.0041-3.22-2.6133-5.8292-5.8333-5.8333h-46.6667c-3.22.0041-5.8292 2.6133-5.8333 5.8333v25.6667c.009 2.9794 2.2674 5.4711 5.2313 5.7732l4.3855 11.3841c1.1585 3.0059 4.5343 4.5033 7.5405 3.3463l27.386-10.5496c-1.8923 4.9429-1.3539 10.4877 1.4531 14.9745l.6703 1.0718v11.333c0 .6446.522 1.1667 1.1666 1.1667h21c.6446 0 1.1667-.5221 1.1667-1.1667v-38.5102c-.0111-4.0346-1.6173-7.9004-4.4698-10.7537zm0 6.9772 3.5409 9.1916c.6938 1.8042-.2054 3.8287-2.0093 4.5232l-2.0239.7816c.3232-.7356.4906-1.5306.4923-2.3333zm-56 12.1631v-25.6667c0-1.9326 1.5674-3.5 3.5-3.5h46.6667c1.9326 0 3.5 1.5674 3.5 3.5v7.4154h-.0102l.0102.0265v18.2248c-.009.2036-.0356.4054-.0793.6043l-10.6867-10.6878c-2.4022-2.3468-6.2318-2.3648-8.6555-.0426-2.4243 2.3237-2.5699 6.1504-.3278 8.65l4.5558 4.9761h-34.9732c-1.9326 0-3.5-1.5674-3.5-3.5zm14.9462 5.8333-8.2962 3.1941-1.2273-3.1941zm-.9613 12.4924c-1.8037.6953-3.8293-.2039-4.5244-2.0075l-1.9681-5.1182 13.9265-5.3667v-.007h19.1928l1.5164 1.6532zm51.3485 17.841h-18.6667v-9.3334h18.6667zm0-11.6667h-19.1859l-.506-.8085c-2.8446-4.5459-2.9578-10.2877-.2955-14.9415.252-.4404.1902-.9934-.1528-1.3673l-9.5605-10.43c-1.4257-1.5605-1.3455-3.9728.1808-5.4344 1.5269-1.4618 3.9404-1.4379 5.4372.0531l18.5912 18.5868 1.6496-1.6497-4.3166-4.3167 1.197-.4666c3.0035-1.1588 4.5004-4.5317 3.3448-7.537l-3.9489-10.2538 3.7794 3.7873c2.415 2.4144 3.7768 5.6863 3.7862 9.1014z"/><path d="m23.2998 26.3332c1.6754 0 3.0334-1.358 3.0334-3.0334v-5.6c0-1.6753-1.358-3.0333-3.0334-3.0333h-5.6c-1.6753 0-3.0333 1.358-3.0333 3.0333v5.6c0 1.6754 1.358 3.0334 3.0333 3.0334zm-6.3-3.0334v-1.6333h2.3334v-2.3333h-2.3334v-1.6334c0-.3864.3136-.7.7-.7h5.6c.3865 0 .7.3136.7.7v1.6334h-2.3333v2.3333h2.3333v1.6333c0 .3865-.3135.7-.7.7h-5.6c-.3864 0-.7-.3135-.7-.7z"/><path d="m15.8335 29.8335h4.6667v2.3333h-4.6667z"/><path d="m15.8335 36.8335h4.6667v2.3333h-4.6667z"/><path d="m36.8335 36.8335h4.6667v2.3333h-4.6667z"/><path d="m22.8335 29.8335h4.6667v2.3333h-4.6667z"/><path d="m29.8335 29.8335h4.6667v2.3333h-4.6667z"/><path d="m36.8335 29.8335h4.6667v2.3333h-4.6667z"/><path d="m59 15.8335h2.3333v3.5h-2.3333z"/><path d="m54.3335 15.8335h2.3333v3.5h-2.3333z"/><path d="m49.6665 15.8335h2.3333v3.5h-2.3333z"/><path d="m45 15.8335h2.3333v3.5h-2.3333z"/><path d="m61.3335 70.6665h2.3333v2.3333h-2.3333z"/></g></svg>