<svg fill="none" height="91" viewBox="0 0 144 91" width="144" xmlns="http://www.w3.org/2000/svg" xmlns:xlink="http://www.w3.org/1999/xlink"><filter id="a" color-interpolation-filters="sRGB" filterUnits="userSpaceOnUse" height="90.3059" width="142.75" x=".686157" y=".281494"><feFlood flood-opacity="0" result="BackgroundImageFix"/><feColorMatrix in="SourceAlpha" type="matrix" values="0 0 0 0 0 0 0 0 0 0 0 0 0 0 0 0 0 0 127 0"/><feOffset/><feGaussianBlur stdDeviation="10"/><feColorMatrix type="matrix" values="0 0 0 0 1 0 0 0 0 0.639852 0 0 0 0 0.0291666 0 0 0 1 0"/><feBlend in2="BackgroundImageFix" mode="normal" result="effect1_dropShadow"/><feColorMatrix in="SourceAlpha" type="matrix" values="0 0 0 0 0 0 0 0 0 0 0 0 0 0 0 0 0 0 127 0"/><feOffset/><feGaussianBlur stdDeviation="5"/><feColorMatrix type="matrix" values="0 0 0 0 1 0 0 0 0 0.639852 0 0 0 0 0.0291666 0 0 0 1 0"/><feBlend in2="effect1_dropShadow" mode="normal" result="effect2_dropShadow"/><feBlend in="SourceGraphic" in2="effect2_dropShadow" mode="normal" result="shape"/></filter><g fill="#fad487" filter="url(#a)"><path d="m27.8705 27.094c.4335.4761.6834.9819.7498 1.5173.074.5405-.048 1.0478-.3659 1.5219-.3078.4591-.7208.7658-1.2389.9202s-1.0773.1667-1.6775.037c-.5952-.1373-1.1713-.3927-1.7282-.7661-.5268-.3533-.9905-.7842-1.3912-1.2929-.3882-.5112-.6719-1.0724-.8512-1.6835l.706-.3939c.1494.5256.3931 1.0163.7311 1.4721.3431.4482.7404.8237 1.1919 1.1265.4289.2876.8694.4848 1.3215.5916.4521.1067.8667.1066 1.2439-.0005.3898-.1095.7008-.3373.9329-.6835.3079-.4591.3644-.9339.1697-1.4244-.1947-.4906-.6194-.9554-1.2741-1.3944l-1.6932-1.1354.4541-.6773 1.6481 1.1051c.5569.3735 1.0678.547 1.5328.5206.4776-.0289.8576-.254 1.1402-.6755.3129-.4665.3582-.9653.136-1.4961-.2172-.5384-.6268-1.0094-1.2289-1.4131-.3762-.2523-.7941-.4507-1.2536-.5952-.4545-.152-.9279-.2349-1.4204-.2488l.1795-.8778c1.0955.0582 2.0985.3926 3.0091 1.0032.5343.3583.9654.7728 1.2934 1.2437.3279.4708.5113.9538.5502 1.4489.0464.5002-.0767.9686-.3694 1.4051-.2826.4214-.644.7082-1.0842.8603-.4351.1445-.9063.1395-1.4135-.0151z"/><path d="m31.6398 37.0165c-.5719-.3835-1.0016-.8571-1.2891-1.4208-.2824-.5712-.4014-1.1747-.357-1.8103.0444-.6357.2609-1.2433.6495-1.8227.3885-.5795.8684-1.0104 1.4396-1.2929.5712-.2824 1.1722-.3976 1.8028-.3457.6306.052 1.2319.2697 1.8038.6532s1.0017.8571 1.2891 1.4208c.2875.5637.4053 1.1608.3533 1.7915-.0444.6356-.2609 1.2432-.6495 1.8227-.3885.5794-.8684 1.0104-1.4396 1.2928-.5637.2875-1.1634.409-1.799.3646-.6307-.052-1.2319-.2697-1.8039-.6532zm.4769-.7112c.4214.2826.8608.4409 1.318.4748.4699.0314.9175-.0667 1.3428-.2942.4253-.2276.7893-.5671 1.0921-1.0186.3028-.4516.4787-.9172.5277-1.3971.049-.4798-.0327-.9274-.2452-1.3426-.1999-.4177-.5106-.7678-.932-1.0504s-.867-.4396-1.3369-.471c-.4573-.0339-.9023.0604-1.3352.2829-.4253.2275-.7893.567-1.0921 1.0186-.3028.4515-.4787.9172-.5277 1.397-.0415.4849.0377.9362.2376 1.3539.2125.4152.5295.7641.9509 1.0467z"/><path d="m41.1392 34.5.8235.5029-1.6502 2.7027 3.8395 2.3444 1.6502-2.7027.8236.5028-3.7255 6.1015-.8236-.5029 1.6432-2.6911-3.8395-2.3444-1.6432 2.6911-.8236-.5029z"/><path d="m52.4645 40.9429c.822.4419 1.341.9883 1.5568 1.6393.2201.643.1136 1.3675-.3197 2.1735l-2.0979 3.9026-.814-.4376.5277-.9816c-.3675.2242-.7881.3273-1.2618.3092-.4658-.0138-.9541-.158-1.4649-.4325-.7023-.3776-1.1708-.8455-1.4056-1.4037-.2348-.5583-.2042-1.1128.0918-1.6634.2874-.5348.7106-.8628 1.2696-.984.5669-.117 1.2734.0519 2.1193.5066l1.9992 1.0747.2059-.3831c.2918-.5427.3611-1.0352.2079-1.4776-.1488-.4503-.5145-.832-1.0971-1.1452-.399-.2145-.8185-.3526-1.2586-.4143-.4357-.0696-.8475-.0595-1.2353.0303l-.042-.8404c.4651-.0997.9597-.1013 1.4839-.0047.5284.0886 1.04.2659 1.5348.5319zm-3.3817 5.5733c.4788.2574.9477.3706 1.4068.3396.4632-.039.8902-.2209 1.2809-.5458l.5534-1.0296-1.9752-1.0618c-1.0774-.5791-1.8177-.4936-2.221.2566-.1973.3671-.2143.7335-.0508 1.0991.1678.3576.5031.6716 1.0059.9419z"/><path d="m62.055 53.3857c-.6435-.2453-1.1685-.6103-1.5752-1.0951-.4035-.4932-.655-1.0545-.7544-1.6839-.0995-.6294-.025-1.27.2236-1.922.2485-.6519.6193-1.1796 1.1125-1.5831s1.0529-.6507 1.6791-.7417c.6262-.0909 1.261-.0138 1.9045.2315.6434.2453 1.1685.6103 1.5752 1.095.4067.4848.6556 1.0402.7466 1.6664.0994.6294.0249 1.2701-.2237 1.922-.2485.6519-.6193 1.1796-1.1125 1.5831-.4848.4067-1.0418.6598-1.6713.7593-.6261.0909-1.261.0138-1.9044-.2315zm.305-.8001c.4741.1808.9378.2363 1.391.1666.4649-.0748.879-.2709 1.2424-.5881.3633-.3173.6418-.7299.8355-1.2379.1936-.5079.2605-1.0012.2005-1.4798-.06-.4787-.2401-.8964-.5404-1.2533-.2886-.3621-.67-.6336-1.1441-.8143-.4741-.1808-.9436-.2337-1.4085-.1588-.4532.0696-.8657.2615-1.2376.5755-.3633.3172-.6418.7298-.8355 1.2378-.1936.508-.2605 1.0013-.2005 1.4799.0684.4818.247.9038.5356 1.266.3003.3569.6875.6257 1.1616.8064z"/><path d="m79.499 60.4135c-.6614-.1914-1.2148-.512-1.6601-.9616-.4427-.4583-.7395-.997-.8905-1.616-.1509-.6191-.1294-1.2637.0646-1.9339s.5201-1.2266.9784-1.6694c.4583-.4427.9957-.7352 1.6123-.8774.6166-.1423 1.2556-.1176 1.9171.0738.6614.1915 1.2148.512 1.66.9616.4453.4496.739.9827.8813 1.5993.1509.619.1294 1.2637-.0646 1.9338-.194.6702-.5201 1.2266-.9784 1.6694-.4496.4452-.984.7433-1.603.8943-.6166.1422-1.2556.1176-1.9171-.0739zm.2381-.8224c.4874.141.954.1582 1.4.0515.4571-.113.8537-.3425 1.1897-.6885.336-.3461.5796-.7803.7307-1.3025.1512-.5222.1772-1.0193.078-1.4913-.0992-.4721-.3131-.8736-.6418-1.2045-.3174-.3372-.7198-.5763-1.2072-.7174-.4874-.141-.9597-.1551-1.4169-.0422-.4459.1067-.8412.3319-1.1859.6754-.336.3461-.5796.7803-.7307 1.3025-.1512.5222-.1772 1.0193-.078 1.4913.1079.4746.3205.8805.638 1.2176.3287.331.7367.567 1.2241.7081z"/><path d="m91.037 57.4069-3.9504-1.0629-1.635 6.0766-.9318-.2507 1.8574-6.9034 4.8822 1.3136z"/><path d="m96.5316 57.7508c.6491.1681 1.1981.4695 1.6472.9041.4512.4258.7567.9448.9163 1.5571s.1507 1.2605-.0265 1.9447c-.1795.6929-.4877 1.2683-.9246 1.726-.4368.4578-.957.7676-1.5605.9295-.5925.1554-1.2177.1478-1.8755-.0226-.5613-.1454-1.0405-.3913-1.4375-.7375-.386-.3527-.6658-.7902-.8393-1.3125l-.9988 3.8549-.9341-.242 2.4543-9.4728.8946.2317-.3545 1.3683c.3988-.3833.8581-.6387 1.3779-.7662.5285-.1251 1.0822-.1127 1.661.0373zm-1.6746 6.1929c.4824.125.9493.129 1.4009.0119.4537-.1257.8437-.3664 1.1698-.7218.3348-.3531.5704-.7929.7068-1.3191.1363-.5263.1427-1.0207.0192-1.4833-.1125-.469-.3365-.8687-.6721-1.199s-.7447-.558-1.2271-.683c-.4912-.1272-.9636-.1279-1.4174-.0022-.445.1281-.835.3687-1.1698.7219-.3238.3466-.5539.7831-.6903 1.3094-.1363.5262-.1482 1.0239-.0358 1.493.1213.4713.3453.871.6722 1.199.3379.3215.7524.5459 1.2436.6732z"/><path d="m107.355 64.3385-5.904-.9522c-.065.7422.121 1.3825.558 1.9209.437.5295 1.045.857 1.824.9825.438.0707.853.0596 1.244-.0333.393-.1019.748-.2833 1.065-.5441l.437.7037c-.373.3253-.813.548-1.319.6684-.497.1217-1.027.1372-1.591.0463-.724-.1169-1.344-.3728-1.858-.7678-.504-.4025-.869-.9019-1.094-1.498-.225-.5962-.282-1.2386-.171-1.9274s.358-1.2822.741-1.7802c.393-.4966.873-.8552 1.44-1.0756.577-.2191 1.192-.2759 1.845-.1706s1.215.3519 1.684.7397c.47.3878.809.8783 1.016 1.4716.208.5843.256 1.2253.144 1.923zm-2.915-3.6089c-.68-.1097-1.288.0172-1.823.3805-.526.3558-.876.8775-1.051 1.5651l5.005.8071c.049-.7078-.124-1.3139-.519-1.8183-.386-.5119-.923-.8233-1.612-.9344z"/><path d="m113.821 65.5925c.921.378 1.306 1.0321 1.156 1.9624-.099.6172-.404 1.0545-.914 1.3119-.509.2574-1.216.3133-2.119.1676l-3.207-.5172 1.138-7.0577 3.113.502c.805.1298 1.411.3881 1.816.7747.406.3867.562.8707.468 1.4522-.062.3846-.223.6983-.482.9409-.249.2352-.572.3896-.969.4632zm-3.526-.844 2.12.3419c.545.088.978.0522 1.297-.1073.329-.1582.525-.434.588-.8276.064-.3936-.036-.7126-.3-.957-.254-.243-.654-.4084-1.2-.4964l-2.12-.3419zm1.73 3.528c.608.0981 1.08.0733 1.416-.0745.336-.1477.538-.4318.606-.8522.067-.4205-.022-.7514-.267-.9929-.244-.2505-.666-.4241-1.265-.5207l-2.335-.3765-.396 2.4554z"/><path d="m120.578 62.948c.922.1485 1.591.4951 2.008 1.0396.418.5355.554 1.255.409 2.1585l-.706 4.3742-.912-.1472.177-1.1002c-.274.3321-.637.5671-1.091.7051-.445.1393-.953.1629-1.526.0705-.787-.1269-1.383-.4157-1.787-.8665-.405-.4507-.557-.9846-.458-1.6018.097-.5994.39-1.0478.878-1.3453.498-.2961 1.22-.3676 2.169-.2147l2.24.3614.07-.4294c.098-.6083.002-1.0964-.287-1.4643-.288-.3768-.759-.6179-1.412-.7232-.447-.0721-.889-.0653-1.325.0204-.434.0767-.82.221-1.157.4328l-.315-.7804c.407-.2464.874-.4097 1.401-.4899.528-.0892 1.07-.0891 1.624.0004zm-1.372 6.3729c.537.0866 1.017.0401 1.441-.1393.425-.1885.769-.5001 1.032-.935l.186-1.1539-2.214-.357c-1.208-.1948-1.88.1283-2.015.9691-.066.4115.037.7632.312 1.0552.275.2831.695.4701 1.258.5609z"/><path d="m73.5026 50.5764c.618.2356 1.1151.5851 1.4912 1.0485.3878.4581.6219.9886.7024 1.5914.0837.5943.0046 1.2089-.2375 1.8439-.2485.6519-.6135 1.177-1.095 1.5753-.4699.393-1.012.6324-1.6265.7181s-1.2519.0027-1.9123-.249c-1.1091-.4228-1.82-1.1399-2.1326-2.1511-.3127-1.0113-.2076-2.2028.3153-3.5743.5454-1.4308 1.2343-2.424 2.0666-2.9794.8408-.5522 1.8928-.7426 3.156-.5714l3.2585.4568-.1623.8835-3.0662-.427c-1.0374-.1531-1.8837-.0442-2.539.3266-.652.3623-1.1993 1.0603-1.6419 2.094.4678-.4132.9979-.6717 1.5902-.7756.5956-.1123 1.2066-.0491 1.8331.1897zm-2.3667 5.7886c.4657.1775.9209.2298 1.3656.157.4565-.0782.8605-.2732 1.2122-.5852.3601-.3088.6337-.7087.8209-1.1997.1872-.4911.2502-.9616.1891-1.4116-.0612-.45-.2393-.8476-.5344-1.1928-.2834-.3504-.6621-.616-1.1362-.7967-.4742-.1808-.9378-.2363-1.391-.1667-.4415.0644-.8391.2426-1.1928.5344-.3452.295-.6114.6881-.7986 1.1792-.1872.491-.2534.97-.1987 1.4369.0632.4701.2391.8863.5277 1.2484.2918.3537.6706.6193 1.1362.7968z"/></g></svg>