<svg fill="none" height="61" viewBox="0 0 60 61" width="60" xmlns="http://www.w3.org/2000/svg" xmlns:xlink="http://www.w3.org/1999/xlink"><clipPath id="a"><path d="m-.000732.186035h60v60.478h-60z"/></clipPath><g clip-path="url(#a)" fill="#fff"><path d="m2.1239 29.48h20.6883v31.184h-20.6883z"/><path d="m26.5621 29.48h6.8743v31.184h-6.8743z"/><path d="m37.1864 29.48h20.6883v31.184h-20.6883z"/><path d="m39.3121 16.2505h20.6871v9.4497h-20.6871z"/><path d="m24.4364 16.2505h11.1258v9.4497h-11.1258z"/><path d="m-.00073242 16.2505h20.68713242v9.4497h-20.68713242z"/><path d="m29.9993 16.2505c-6.918 0-17.8125-1.5696-17.8125-8.50471 0-4.80434 2.7336-7.559755 7.5-7.559755 3.4401 0 6.5494 2.384625 9.2413 7.087855 1.8424 3.21881 2.8224 6.39711 2.8632 6.53091.3709 1.2142-.5316 2.4457-1.792 2.4457zm-10.3125-12.28459c-2.6986 0-3.75 1.05978-3.75 3.77988 0 2.65911 5.4388 4.25731 11.326 4.63681-1.4969-3.51702-4.3025-8.41669-7.576-8.41669z"/><path d="m29.9993 16.2505c-1.2604 0-2.1629-1.2315-1.792-2.4457.0407-.1338 1.0208-3.3121 2.8632-6.53091 2.6919-4.70323 5.8011-7.087855 9.2413-7.087855 4.7664 0 7.5 2.755415 7.5 7.559755 0 6.94061-10.9099 8.50471-17.8125 8.50471zm10.3125-12.28459c-3.2854 0-6.0875 4.90026-7.5799 8.41699 5.8886-.3791 11.3299-1.9775 11.3299-4.63711 0-2.7201-1.0514-3.77988-3.75-3.77988z"/></g></svg>