<svg fill="none" height="242" viewBox="0 0 232 242" width="232" xmlns="http://www.w3.org/2000/svg"><g fill="#fff" opacity=".03"><path d="m0 0h7.26v7.26h-7.26z"/><path d="m116.16 0h7.26v7.26h-7.26z"/><path d="m0 87.1201h7.26v7.26h-7.26z"/><path d="m116.16 87.1201h7.26v7.26h-7.26z"/><path d="m58.0801 0h7.26v7.26h-7.26z"/><path d="m174.24 0h7.26v7.26h-7.26z"/><path d="m58.0801 87.1201h7.26v7.26h-7.26z"/><path d="m174.24 87.1201h7.26v7.26h-7.26z"/><path d="m58.0801 43.5596h7.26v7.26h-7.26z"/><path d="m174.24 43.5596h7.26v7.26h-7.26z"/><path d="m58.0801 130.68h7.26v7.26h-7.26z"/><path d="m174.24 130.68h7.26v7.26h-7.26z"/><path d="m58.0801 188.759h7.26v7.26h-7.26z"/><path d="m174.24 188.759h7.26v7.26h-7.26z"/><path d="m0 43.5596h7.26v7.26h-7.26z"/><path d="m116.16 43.5596h7.26v7.26h-7.26z"/><path d="m0 130.68h7.26v7.26h-7.26z"/><path d="m116.16 130.68h7.26v7.26h-7.26z"/><path d="m0 188.759h7.26v7.26h-7.26z"/><path d="m116.16 188.759h7.26v7.26h-7.26z"/><path d="m0 14.52h7.26v7.26h-7.26z"/><path d="m116.16 14.52h7.26v7.26h-7.26z"/><path d="m0 101.64h7.26v7.26h-7.26z"/><path d="m116.16 101.64h7.26v7.26h-7.26z"/><path d="m58.0801 14.52h7.26v7.26h-7.26z"/><path d="m174.24 14.52h7.26v7.26h-7.26z"/><path d="m58.0801 101.64h7.26v7.26h-7.26z"/><path d="m174.24 101.64h7.26v7.26h-7.26z"/><path d="m58.0801 58.0796h7.26v7.26h-7.26z"/><path d="m174.24 58.0796h7.26v7.26h-7.26z"/><path d="m58.0801 145.2h7.26v7.26h-7.26z"/><path d="m174.24 145.2h7.26v7.26h-7.26z"/><path d="m58.0801 203.28h7.26v7.26h-7.26z"/><path d="m58.0801 217.8h7.26v7.26h-7.26z"/><path d="m58.0801 232.32h7.26v7.26h-7.26z"/><path d="m174.24 203.28h7.26v7.26h-7.26z"/><path d="m174.24 217.8h7.26v7.26h-7.26z"/><path d="m174.24 232.32h7.26v7.26h-7.26z"/><path d="m0 58.0796h7.26v7.26h-7.26z"/><path d="m116.16 58.0796h7.26v7.26h-7.26z"/><path d="m0 145.2h7.26v7.26h-7.26z"/><path d="m116.16 145.2h7.26v7.26h-7.26z"/><path d="m0 203.28h7.26v7.26h-7.26z"/><path d="m0 217.8h7.26v7.26h-7.26z"/><path d="m0 232.32h7.26v7.26h-7.26z"/><path d="m116.16 203.28h7.26v7.26h-7.26z"/><path d="m116.16 217.8h7.26v7.26h-7.26z"/><path d="m116.16 232.32h7.26v7.26h-7.26z"/><path d="m0 29.0405h7.26v7.26h-7.26z"/><path d="m116.16 29.0405h7.26v7.26h-7.26z"/><path d="m0 116.16h7.26v7.26h-7.26z"/><path d="m116.16 116.16h7.26v7.26h-7.26z"/><path d="m0 174.24h7.26v7.26h-7.26z"/><path d="m116.16 174.24h7.26v7.26h-7.26z"/><path d="m58.0801 29.0405h7.26v7.26h-7.26z"/><path d="m174.24 29.0405h7.26v7.26h-7.26z"/><path d="m58.0801 116.16h7.26v7.26h-7.26z"/><path d="m174.24 116.16h7.26v7.26h-7.26z"/><path d="m58.0801 174.24h7.26v7.26h-7.26z"/><path d="m174.24 174.24h7.26v7.26h-7.26z"/><path d="m58.0801 72.6001h7.26v7.26h-7.26z"/><path d="m174.24 72.6001h7.26v7.26h-7.26z"/><path d="m58.0801 159.72h7.26v7.26h-7.26z"/><path d="m174.24 159.72h7.26v7.26h-7.26z"/><path d="m0 72.6001h7.26v7.26h-7.26z"/><path d="m116.16 72.6001h7.26v7.26h-7.26z"/><path d="m0 159.72h7.26v7.26h-7.26z"/><path d="m116.16 159.72h7.26v7.26h-7.26z"/><path d="m29.0398 29.0405h7.26v7.26h-7.26z"/><path d="m145.2 29.0405h7.26v7.26h-7.26z"/><path d="m29.0398 116.16h7.26v7.26h-7.26z"/><path d="m145.2 116.16h7.26v7.26h-7.26z"/><path d="m29.0398 174.24h7.26v7.26h-7.26z"/><path d="m145.2 174.24h7.26v7.26h-7.26z"/><path d="m87.1199 29.0405h7.26v7.26h-7.26z"/><path d="m203.28 29.0405h7.26v7.26h-7.26z"/><path d="m87.1199 116.16h7.26v7.26h-7.26z"/><path d="m203.28 116.16h7.26v7.26h-7.26z"/><path d="m87.1199 174.24h7.26v7.26h-7.26z"/><path d="m203.28 174.24h7.26v7.26h-7.26z"/><path d="m87.1199 72.6001h7.26v7.26h-7.26z"/><path d="m203.28 72.6001h7.26v7.26h-7.26z"/><path d="m87.1199 159.72h7.26v7.26h-7.26z"/><path d="m203.28 159.72h7.26v7.26h-7.26z"/><path d="m29.0398 72.6001h7.26v7.26h-7.26z"/><path d="m145.2 72.6001h7.26v7.26h-7.26z"/><path d="m29.0398 159.72h7.26v7.26h-7.26z"/><path d="m145.2 159.72h7.26v7.26h-7.26z"/><path d="m29.0398 14.52h7.26v7.26h-7.26z"/><path d="m145.2 14.52h7.26v7.26h-7.26z"/><path d="m29.0398 101.64h7.26v7.26h-7.26z"/><path d="m145.2 101.64h7.26v7.26h-7.26z"/><path d="m87.1199 14.52h7.26v7.26h-7.26z"/><path d="m203.28 14.52h7.26v7.26h-7.26z"/><path d="m87.1199 101.64h7.26v7.26h-7.26z"/><path d="m203.28 101.64h7.26v7.26h-7.26z"/><path d="m87.1199 58.0796h7.26v7.26h-7.26z"/><path d="m203.28 58.0796h7.26v7.26h-7.26z"/><path d="m87.1199 145.2h7.26v7.26h-7.26z"/><path d="m203.28 145.2h7.26v7.26h-7.26z"/><path d="m87.1199 203.28h7.26v7.26h-7.26z"/><path d="m87.1199 217.8h7.26v7.26h-7.26z"/><path d="m87.1199 232.32h7.26v7.26h-7.26z"/><path d="m203.28 203.28h7.26v7.26h-7.26z"/><path d="m203.28 217.8h7.26v7.26h-7.26z"/><path d="m203.28 232.32h7.26v7.26h-7.26z"/><path d="m29.0398 58.0796h7.26v7.26h-7.26z"/><path d="m145.2 58.0796h7.26v7.26h-7.26z"/><path d="m29.0398 145.2h7.26v7.26h-7.26z"/><path d="m145.2 145.2h7.26v7.26h-7.26z"/><path d="m29.0398 203.28h7.26v7.26h-7.26z"/><path d="m29.0398 217.8h7.26v7.26h-7.26z"/><path d="m29.0398 232.32h7.26v7.26h-7.26z"/><path d="m145.2 203.28h7.26v7.26h-7.26z"/><path d="m145.2 217.8h7.26v7.26h-7.26z"/><path d="m145.2 232.32h7.26v7.26h-7.26z"/><path d="m29.0398 0h7.26v7.26h-7.26z"/><path d="m145.2 0h7.26v7.26h-7.26z"/><path d="m29.0398 87.1201h7.26v7.26h-7.26z"/><path d="m145.2 87.1201h7.26v7.26h-7.26z"/><path d="m87.1199 0h7.26v7.26h-7.26z"/><path d="m203.28 0h7.26v7.26h-7.26z"/><path d="m87.1199 87.1201h7.26v7.26h-7.26z"/><path d="m203.28 87.1201h7.26v7.26h-7.26z"/><path d="m87.1199 43.5596h7.26v7.26h-7.26z"/><path d="m203.28 43.5596h7.26v7.26h-7.26z"/><path d="m87.1199 130.68h7.26v7.26h-7.26z"/><path d="m203.28 130.68h7.26v7.26h-7.26z"/><path d="m87.1199 188.759h7.26v7.26h-7.26z"/><path d="m203.28 188.759h7.26v7.26h-7.26z"/><path d="m29.0398 43.5596h7.26v7.26h-7.26z"/><path d="m145.2 43.5596h7.26v7.26h-7.26z"/><path d="m29.0398 130.68h7.26v7.26h-7.26z"/><path d="m145.2 130.68h7.26v7.26h-7.26z"/><path d="m29.0398 188.759h7.26v7.26h-7.26z"/><path d="m145.2 188.759h7.26v7.26h-7.26z"/><path d="m14.52 0h7.26v7.26h-7.26z"/><path d="m130.68 0h7.26v7.26h-7.26z"/><path d="m14.52 87.1201h7.26v7.26h-7.26z"/><path d="m130.68 87.1201h7.26v7.26h-7.26z"/><path d="m72.5999 0h7.26v7.26h-7.26z"/><path d="m188.76 0h7.26v7.26h-7.26z"/><path d="m72.5999 87.1201h7.26v7.26h-7.26z"/><path d="m188.76 87.1201h7.26v7.26h-7.26z"/><path d="m72.5999 43.5596h7.26v7.26h-7.26z"/><path d="m188.76 43.5596h7.26v7.26h-7.26z"/><path d="m72.5999 130.68h7.26v7.26h-7.26z"/><path d="m188.76 130.68h7.26v7.26h-7.26z"/><path d="m72.5999 188.759h7.26v7.26h-7.26z"/><path d="m188.76 188.759h7.26v7.26h-7.26z"/><path d="m14.52 43.5596h7.26v7.26h-7.26z"/><path d="m130.68 43.5596h7.26v7.26h-7.26z"/><path d="m14.52 130.68h7.26v7.26h-7.26z"/><path d="m130.68 130.68h7.26v7.26h-7.26z"/><path d="m14.52 188.759h7.26v7.26h-7.26z"/><path d="m130.68 188.759h7.26v7.26h-7.26z"/><path d="m14.52 14.52h7.26v7.26h-7.26z"/><path d="m130.68 14.52h7.26v7.26h-7.26z"/><path d="m14.52 101.64h7.26v7.26h-7.26z"/><path d="m130.68 101.64h7.26v7.26h-7.26z"/><path d="m72.5999 14.52h7.26v7.26h-7.26z"/><path d="m188.76 14.52h7.26v7.26h-7.26z"/><path d="m72.5999 101.64h7.26v7.26h-7.26z"/><path d="m188.76 101.64h7.26v7.26h-7.26z"/><path d="m72.5999 58.0796h7.26v7.26h-7.26z"/><path d="m188.76 58.0796h7.26v7.26h-7.26z"/><path d="m72.5999 145.2h7.26v7.26h-7.26z"/><path d="m188.76 145.2h7.26v7.26h-7.26z"/><path d="m72.5999 203.28h7.26v7.26h-7.26z"/><path d="m72.5999 217.8h7.26v7.26h-7.26z"/><path d="m72.5999 232.32h7.26v7.26h-7.26z"/><path d="m188.76 203.28h7.26v7.26h-7.26z"/><path d="m188.76 217.8h7.26v7.26h-7.26z"/><path d="m188.76 232.32h7.26v7.26h-7.26z"/><path d="m14.52 58.0796h7.26v7.26h-7.26z"/><path d="m130.68 58.0796h7.26v7.26h-7.26z"/><path d="m14.52 145.2h7.26v7.26h-7.26z"/><path d="m130.68 145.2h7.26v7.26h-7.26z"/><path d="m14.52 203.28h7.26v7.26h-7.26z"/><path d="m14.52 217.8h7.26v7.26h-7.26z"/><path d="m14.52 232.32h7.26v7.26h-7.26z"/><path d="m130.68 203.28h7.26v7.26h-7.26z"/><path d="m130.68 217.8h7.26v7.26h-7.26z"/><path d="m130.68 232.32h7.26v7.26h-7.26z"/><path d="m14.52 29.0405h7.26v7.26h-7.26z"/><path d="m130.68 29.0405h7.26v7.26h-7.26z"/><path d="m14.52 116.16h7.26v7.26h-7.26z"/><path d="m130.68 116.16h7.26v7.26h-7.26z"/><path d="m14.52 174.24h7.26v7.26h-7.26z"/><path d="m130.68 174.24h7.26v7.26h-7.26z"/><path d="m72.5999 29.0405h7.26v7.26h-7.26z"/><path d="m188.76 29.0405h7.26v7.26h-7.26z"/><path d="m72.5999 116.16h7.26v7.26h-7.26z"/><path d="m188.76 116.16h7.26v7.26h-7.26z"/><path d="m72.5999 174.24h7.26v7.26h-7.26z"/><path d="m188.76 174.24h7.26v7.26h-7.26z"/><path d="m72.5999 72.6001h7.26v7.26h-7.26z"/><path d="m188.76 72.6001h7.26v7.26h-7.26z"/><path d="m72.5999 159.72h7.26v7.26h-7.26z"/><path d="m188.76 159.72h7.26v7.26h-7.26z"/><path d="m14.52 72.6001h7.26v7.26h-7.26z"/><path d="m130.68 72.6001h7.26v7.26h-7.26z"/><path d="m14.52 159.72h7.26v7.26h-7.26z"/><path d="m130.68 159.72h7.26v7.26h-7.26z"/><path d="m43.5601 29.0405h7.26v7.26h-7.26z"/><path d="m159.72 29.0405h7.26v7.26h-7.26z"/><path d="m43.5601 116.16h7.26v7.26h-7.26z"/><path d="m159.72 116.16h7.26v7.26h-7.26z"/><path d="m43.5601 174.24h7.26v7.26h-7.26z"/><path d="m159.72 174.24h7.26v7.26h-7.26z"/><path d="m101.64 29.0405h7.26v7.26h-7.26z"/><path d="m217.8 29.0405h7.26v7.26h-7.26z"/><path d="m101.64 116.16h7.26v7.26h-7.26z"/><path d="m217.8 116.16h7.26v7.26h-7.26z"/><path d="m101.64 174.24h7.26v7.26h-7.26z"/><path d="m217.8 174.24h7.26v7.26h-7.26z"/><path d="m101.64 72.6001h7.26v7.26h-7.26z"/><path d="m217.8 72.6001h7.26v7.26h-7.26z"/><path d="m101.64 159.72h7.26v7.26h-7.26z"/><path d="m217.8 159.72h7.26v7.26h-7.26z"/><path d="m43.5601 72.6001h7.26v7.26h-7.26z"/><path d="m159.72 72.6001h7.26v7.26h-7.26z"/><path d="m43.5601 159.72h7.26v7.26h-7.26z"/><path d="m159.72 159.72h7.26v7.26h-7.26z"/><path d="m43.5601 14.52h7.26v7.26h-7.26z"/><path d="m159.72 14.52h7.26v7.26h-7.26z"/><path d="m43.5601 101.64h7.26v7.26h-7.26z"/><path d="m159.72 101.64h7.26v7.26h-7.26z"/><path d="m101.64 14.52h7.26v7.26h-7.26z"/><path d="m217.8 14.52h7.26v7.26h-7.26z"/><path d="m101.64 101.64h7.26v7.26h-7.26z"/><path d="m217.8 101.64h7.26v7.26h-7.26z"/><path d="m101.64 58.0796h7.26v7.26h-7.26z"/><path d="m217.8 58.0796h7.26v7.26h-7.26z"/><path d="m101.64 145.2h7.26v7.26h-7.26z"/><path d="m217.8 145.2h7.26v7.26h-7.26z"/><path d="m101.64 203.28h7.26v7.26h-7.26z"/><path d="m101.64 217.8h7.26v7.26h-7.26z"/><path d="m101.64 232.32h7.26v7.26h-7.26z"/><path d="m217.8 203.28h7.26v7.26h-7.26z"/><path d="m217.8 217.8h7.26v7.26h-7.26z"/><path d="m217.8 232.32h7.26v7.26h-7.26z"/><path d="m43.5601 58.0796h7.26v7.26h-7.26z"/><path d="m159.72 58.0796h7.26v7.26h-7.26z"/><path d="m43.5601 145.2h7.26v7.26h-7.26z"/><path d="m159.72 145.2h7.26v7.26h-7.26z"/><path d="m43.5601 203.28h7.26v7.26h-7.26z"/><path d="m43.5601 217.8h7.26v7.26h-7.26z"/><path d="m43.5601 232.32h7.26v7.26h-7.26z"/><path d="m159.72 203.28h7.26v7.26h-7.26z"/><path d="m159.72 217.8h7.26v7.26h-7.26z"/><path d="m159.72 232.32h7.26v7.26h-7.26z"/><path d="m43.5601 0h7.26v7.26h-7.26z"/><path d="m159.72 0h7.26v7.26h-7.26z"/><path d="m43.5601 87.1201h7.26v7.26h-7.26z"/><path d="m159.72 87.1201h7.26v7.26h-7.26z"/><path d="m101.64 0h7.26v7.26h-7.26z"/><path d="m217.8 0h7.26v7.26h-7.26z"/><path d="m101.64 87.1201h7.26v7.26h-7.26z"/><path d="m217.8 87.1201h7.26v7.26h-7.26z"/><path d="m101.64 43.5596h7.26v7.26h-7.26z"/><path d="m217.8 43.5596h7.26v7.26h-7.26z"/><path d="m101.64 130.68h7.26v7.26h-7.26z"/><path d="m217.8 130.68h7.26v7.26h-7.26z"/><path d="m101.64 188.759h7.26v7.26h-7.26z"/><path d="m217.8 188.759h7.26v7.26h-7.26z"/><path d="m43.5601 43.5596h7.26v7.26h-7.26z"/><path d="m159.72 43.5596h7.26v7.26h-7.26z"/><path d="m43.5601 130.68h7.26v7.26h-7.26z"/><path d="m159.72 130.68h7.26v7.26h-7.26z"/><path d="m43.5601 188.759h7.26v7.26h-7.26z"/><path d="m159.72 188.759h7.26v7.26h-7.26z"/></g></svg>