<?xml version="1.0" standalone="no"?>
<!DOCTYPE svg PUBLIC "-//W3C//DTD SVG 20010904//EN"
 "http://www.w3.org/TR/2001/REC-SVG-20010904/DTD/svg10.dtd">
<svg version="1.0" xmlns="http://www.w3.org/2000/svg"
 width="1040.000000pt" height="1040.000000pt" viewBox="0 0 1040.000000 1040.000000"
 preserveAspectRatio="xMidYMid meet">
<metadata>
Created by potrace 1.11, written by Peter Selinger 2001-2013
</metadata>
<g transform="translate(0.000000,1040.000000) scale(0.100000,-0.100000)"
fill="#000000" stroke="none">
<path d="M2595 7364 c-16 -2 -77 -9 -135 -15 -584 -62 -1072 -286 -1394 -640
-109 -120 -146 -190 -146 -279 0 -81 56 -108 165 -79 22 6 139 59 260 119 390
193 630 252 1020 252 244 -1 480 -30 830 -102 229 -48 471 -110 1219 -315
1377 -376 1894 -489 2561 -562 234 -25 936 -26 1115 0 481 68 884 241 1193
511 215 189 321 392 242 466 -22 20 -31 22 -93 18 -62 -5 -90 -15 -298 -116
-333 -160 -436 -197 -679 -239 -155 -26 -529 -24 -745 5 -335 45 -707 130
-1405 322 -1650 453 -2157 565 -2865 636 -136 13 -779 27 -845 18z"/>
<path d="M2640 6089 c-348 -24 -634 -84 -893 -189 -276 -112 -533 -290 -696
-482 -95 -111 -123 -165 -129 -248 -4 -65 -3 -69 23 -86 32 -21 103 -23 161
-4 22 7 122 54 224 105 221 110 329 154 481 194 300 80 591 89 1012 31 300
-42 670 -129 1367 -320 1334 -367 1719 -460 2290 -555 415 -68 717 -95 1084
-95 666 0 1117 116 1526 391 148 100 263 200 340 295 78 97 111 163 117 234 5
54 4 57 -27 83 -59 50 -130 32 -401 -106 -408 -207 -730 -275 -1168 -247 -419
27 -732 94 -1741 370 -898 246 -1161 315 -1530 399 -814 185 -1521 265 -2040
230z"/>
<path d="M2426 4794 c-487 -64 -847 -206 -1171 -459 -93 -73 -217 -199 -265
-269 -65 -95 -91 -214 -54 -250 52 -53 148 -31 381 87 383 193 540 238 901
258 481 26 845 -38 1982 -351 1560 -429 2074 -543 2810 -622 249 -26 789 -32
975 -10 454 55 785 165 1085 362 346 228 559 522 454 627 -23 23 -31 25 -88
21 -55 -3 -89 -17 -292 -115 -416 -202 -583 -248 -939 -259 -488 -16 -816 47
-2155 413 -1333 364 -1837 476 -2497 554 -235 28 -951 37 -1127 13z"/>
</g>
</svg>
