<svg width="30" height="30" viewBox="0 0 30 30" fill="none" xmlns="http://www.w3.org/2000/svg">
<g clip-path="url(#clip0)">
<path d="M29.4171 23.8538L26.0913 21.6364L23.1348 19.6658C22.5642 19.2862 21.7974 19.4106 21.3762 19.9513L19.5467 22.3032C19.1537 22.8135 18.4468 22.9602 17.8832 22.6482C16.6419 21.9577 15.174 21.3075 11.935 18.0644C8.69614 14.8214 8.04183 13.3576 7.35131 12.1162C7.0393 11.5527 7.18596 10.8458 7.69631 10.4528L10.0482 8.6234C10.5888 8.20223 10.7133 7.43542 10.3337 6.86478L8.42357 3.99929L6.14564 0.582377C5.75793 0.000782443 4.98181 -0.173825 4.3824 0.185644L1.75532 1.76168C1.04535 2.17998 0.523461 2.85544 0.297761 3.64803C-0.420649 6.26731 -0.565491 12.0454 8.69456 21.3054C17.9546 30.5654 23.7321 30.4201 26.3514 29.7017C27.144 29.476 27.8195 28.9541 28.2378 28.2441L29.8138 25.6171C30.1733 25.0176 29.9987 24.2416 29.4171 23.8538Z" fill="#B39C75"/>
<path d="M17.0687 4.65409C21.9227 4.65948 25.8563 8.59307 25.8617 13.4471C25.8617 13.7327 26.0933 13.9644 26.379 13.9644C26.6646 13.9644 26.8962 13.7328 26.8962 13.4471C26.8903 8.02202 22.4938 3.62561 17.0688 3.61963C16.7831 3.61963 16.5515 3.85119 16.5515 4.13689C16.5515 4.42247 16.783 4.65409 17.0687 4.65409Z" fill="#B39C75"/>
<path d="M17.0685 7.75718C20.2093 7.76087 22.7544 10.306 22.7581 13.4467C22.7581 13.7324 22.9897 13.964 23.2754 13.964C23.561 13.964 23.7926 13.7324 23.7926 13.4467C23.7883 9.73493 20.7804 6.72693 17.0685 6.72266C16.7829 6.72266 16.5513 6.95422 16.5513 7.23992C16.5513 7.52562 16.7828 7.75718 17.0685 7.75718Z" fill="#B39C75"/>
<path d="M17.0687 10.8611C18.4963 10.8628 19.6532 12.0197 19.6549 13.4473C19.6549 13.7329 19.8865 13.9646 20.1722 13.9646C20.4578 13.9646 20.6894 13.733 20.6894 13.4473C20.6871 11.4486 19.0674 9.82895 17.0688 9.82666C16.7831 9.82666 16.5515 10.0582 16.5515 10.3439C16.5515 10.6296 16.783 10.8611 17.0687 10.8611Z" fill="#B39C75"/>
</g>
<defs>
<clipPath id="clip0">
<rect y="-0.000976562" width="30" height="30" fill="white"/>
</clipPath>
</defs>
</svg>
