<svg width="30" height="30" viewBox="0 0 30 30" fill="none" xmlns="http://www.w3.org/2000/svg">
<path d="M0.626181 5.57457C4.74356 9.06154 11.9683 15.1962 14.0917 17.109C14.3768 17.3671 14.6825 17.4984 14.9999 17.4984C15.3167 17.4984 15.6219 17.3684 15.9063 17.1114C18.0316 15.1968 25.2563 9.06154 29.3737 5.57457C29.6301 5.35789 29.6692 4.97703 29.4616 4.71213C28.9819 4.1 28.2666 3.74902 27.4999 3.74902H2.49995C1.73337 3.74902 1.018 4.1 0.53829 4.71219C0.330751 4.97703 0.369833 5.35789 0.626181 5.57457Z" fill="#B39C75"/>
<path d="M29.6375 7.46403C29.4159 7.3609 29.1553 7.39688 28.971 7.55438C24.4049 11.4252 18.5773 16.3868 16.7438 18.039C15.7147 18.9679 14.2864 18.9679 13.255 18.0377C11.3006 16.2769 4.75641 10.7135 1.02902 7.55432C0.843457 7.39682 0.582246 7.36208 0.36252 7.46397C0.141621 7.56657 0 7.78753 0 8.03104V23.7488C0 25.1276 1.12119 26.2488 2.50002 26.2488H27.5C28.8788 26.2488 30 25.1276 30 23.7488V8.03104C30 7.78753 29.8584 7.56598 29.6375 7.46403Z" fill="#B39C75"/>
</svg>
