<svg width="30" height="30" viewBox="0 0 30 30" fill="none" xmlns="http://www.w3.org/2000/svg">
<g clip-path="url(#clip0)">
<path d="M10.9375 22.0142V27.8116C10.9375 28.2166 11.1975 28.5754 11.5825 28.7029C11.6787 28.7341 11.7775 28.7491 11.875 28.7491C12.1675 28.7491 12.45 28.6116 12.63 28.3666L16.0212 23.7517L10.9375 22.0142Z" fill="#B39C75"/>
<path d="M29.6063 0.172884C29.3188 -0.0308658 28.9413 -0.0583658 28.6288 0.105384L0.503806 14.7929C0.171306 14.9666 -0.0249444 15.3216 0.0025556 15.6954C0.0313056 16.0704 0.280056 16.3904 0.633806 16.5116L8.45257 19.1841L25.1038 4.94663L12.2188 20.4704L25.3226 24.9491C25.4201 24.9816 25.5226 24.9991 25.6251 24.9991C25.7951 24.9991 25.9638 24.9529 26.1126 24.8629C26.3501 24.7179 26.5113 24.4741 26.5526 24.2004L29.9901 1.07538C30.0413 0.725384 29.8938 0.377884 29.6063 0.172884Z" fill="#B39C75"/>
</g>
<defs>
<clipPath id="clip0">
<rect y="-0.000976562" width="30" height="30" fill="white"/>
</clipPath>
</defs>
</svg>
