<svg width="30" height="30" viewBox="0 0 30 30" fill="none" xmlns="http://www.w3.org/2000/svg">
<g clip-path="url(#clip0)">
<path d="M18.0004 -0.000976562H11.9996C6.20911 -0.000976562 1.49829 4.70984 1.49829 10.5004V15.001C1.49829 19.0662 3.84286 22.7555 7.49905 24.4909V29.5028C7.49905 29.938 8.04345 30.1655 8.35271 29.8564L12.7067 25.5023H18.0003C23.7908 25.5023 28.5017 20.7915 28.5017 15.001V10.5004C28.5017 4.70984 23.7908 -0.000976562 18.0004 -0.000976562Z" fill="#B39C75"/>
<path d="M8.99923 24.4908C5.34304 22.7554 2.99847 19.0662 2.99847 15.0009V10.5003C2.99847 4.70984 7.70935 -0.000976562 13.4998 -0.000976562H11.9996C6.20911 -0.000976562 1.49829 4.70984 1.49829 10.5004V15.001C1.49829 19.0662 3.84286 22.7555 7.49905 24.4909V29.5028C7.49905 29.938 8.04345 30.1655 8.35271 29.8564L8.99923 29.2099V24.4908Z" fill="#B39C75"/>
<path d="M22.5499 18.6375L22.1003 16.202C22.0631 16.0008 21.9073 15.8425 21.7066 15.8024L18.1707 15.0952C18.0064 15.0625 17.8372 15.1138 17.7189 15.232L16.2824 16.6686C13.862 15.5841 12.5187 14.2378 11.3367 11.7135L12.7686 10.2817C12.8868 10.1634 12.9381 9.99386 12.9054 9.82991L12.1982 6.29389C12.1581 6.09333 11.9998 5.93735 11.7986 5.9002L9.36311 5.45067C9.29643 5.43843 9.22775 5.43971 9.16154 5.45477C8.51848 5.60085 7.93172 5.92487 7.46467 6.39204C6.65596 7.20075 6.34688 8.38083 6.57094 9.80471C6.94705 12.1957 8.11846 15.5231 10.2797 17.693L10.3092 17.7223C12.4774 19.882 15.8049 21.0535 18.196 21.4297C18.4972 21.4772 18.7873 21.5007 19.0655 21.5007C20.1023 21.5007 20.971 21.1736 21.6088 20.5359C22.0758 20.0688 22.4 19.4821 22.546 18.8391C22.5608 18.7728 22.5622 18.7043 22.5499 18.6375Z" fill="#2B2B2C"/>
<path d="M12.2794 10.7707L12.7683 10.2818L12.7688 10.2812L12.2793 10.7707L12.2794 10.7707Z" fill="#E5E5E5"/>
<path d="M17.7188 15.2319L17.2251 15.7256L17.2252 15.7257L17.7189 15.232L17.7188 15.2319Z" fill="#E5E5E5"/>
<path d="M20.008 20.5578C19.7298 20.5578 19.4397 20.5343 19.1385 20.4869C16.7475 20.1107 13.42 18.9392 11.2517 16.7795L11.2222 16.7502C9.06098 14.5803 7.88957 11.2529 7.51346 8.86187C7.33246 7.7115 7.49981 6.72039 7.99721 5.95557C7.80672 6.08266 7.62795 6.22844 7.46418 6.39221C6.65547 7.20092 6.34639 8.381 6.57045 9.80488C6.94656 12.1959 8.11797 15.5233 10.2792 17.6932L10.3087 17.7225C12.4769 19.8822 15.8044 21.0537 18.1955 21.4299C18.4967 21.4773 18.7868 21.5008 19.065 21.5008C20.1019 21.5008 20.9705 21.1738 21.6083 20.5361C21.772 20.3723 21.9178 20.1936 22.0449 20.0031C21.4802 20.3704 20.7923 20.5578 20.008 20.5578Z" fill="#2B2B2C"/>
<path d="M16.0003 8.5C15.7241 8.5 15.5002 8.72389 15.5002 9.00004C15.5002 9.27619 15.7241 9.50008 16.0003 9.50008C17.1033 9.50008 18.0006 10.3974 18.0006 11.5004C18.0006 11.7728 18.2281 12.0004 18.5006 12.0004C18.7731 12.0004 19.0006 11.7728 19.0006 11.5004C19.0007 9.8459 17.6547 8.5 16.0003 8.5Z" fill="#2B2B2C"/>
<path d="M16.0002 6.49951C15.8152 6.49951 15.6285 6.50977 15.4453 6.52998C15.1708 6.56027 14.9728 6.80736 15.0031 7.08193C15.0334 7.3565 15.281 7.55397 15.555 7.52414C15.702 7.50791 15.8517 7.49965 16.0002 7.49965C18.2061 7.49965 20.0007 9.29426 20.0007 11.5001C20.0007 11.6487 19.9924 11.7984 19.9762 11.9454C19.9463 12.2162 20.1475 12.4675 20.4184 12.4973C20.6892 12.5272 20.9404 12.326 20.9704 12.0551C20.9906 11.8719 21.0008 11.6852 21.0008 11.5001C21.0008 8.74283 18.7576 6.49951 16.0002 6.49951Z" fill="#2B2B2C"/>
<path d="M16.0007 4.49951C15.822 4.49951 15.641 4.50631 15.4628 4.51984C15.1874 4.5407 14.9811 4.78094 15.0019 5.05627C15.0227 5.33166 15.2638 5.53803 15.5384 5.51717C15.6915 5.50551 15.847 5.49965 16.0007 5.49965C19.3095 5.49965 22.0014 8.19156 22.0014 11.5004C22.0014 11.9686 21.9474 12.4346 21.8409 12.8856C21.7798 13.144 21.9389 13.4126 22.1951 13.4828C22.4647 13.5566 22.75 13.3875 22.8142 13.1156C22.9385 12.5894 23.0016 12.046 23.0016 11.5004C23.0016 7.64008 19.861 4.49951 16.0007 4.49951Z" fill="#2B2B2C"/>
</g>
<defs>
<clipPath id="clip0">
<rect y="-0.000976562" width="30" height="30" fill="white"/>
</clipPath>
</defs>
</svg>
