<svg fill="none" height="197" viewBox="0 0 563 197" width="563" xmlns="http://www.w3.org/2000/svg" xmlns:xlink="http://www.w3.org/1999/xlink"><filter id="a" color-interpolation-filters="sRGB" filterUnits="userSpaceOnUse" height="19.965" width="102.819" x="262.767" y="176.835"><feFlood flood-opacity="0" result="BackgroundImageFix"/><feColorMatrix in="SourceAlpha" type="matrix" values="0 0 0 0 0 0 0 0 0 0 0 0 0 0 0 0 0 0 127 0"/><feOffset/><feGaussianBlur stdDeviation="1.5"/><feColorMatrix type="matrix" values="0 0 0 0 1 0 0 0 0 0.815686 0 0 0 0 0.490196 0 0 0 0.7 0"/><feBlend in2="BackgroundImageFix" mode="normal" result="effect1_dropShadow"/><feBlend in="SourceGraphic" in2="effect1_dropShadow" mode="normal" result="shape"/></filter><filter id="b" color-interpolation-filters="sRGB" filterUnits="userSpaceOnUse" height="19.851" width="183.863" x="370.767" y="153.835"><feFlood flood-opacity="0" result="BackgroundImageFix"/><feColorMatrix in="SourceAlpha" type="matrix" values="0 0 0 0 0 0 0 0 0 0 0 0 0 0 0 0 0 0 127 0"/><feOffset/><feGaussianBlur stdDeviation="1.5"/><feColorMatrix type="matrix" values="0 0 0 0 1 0 0 0 0 0.815686 0 0 0 0 0.490196 0 0 0 0.7 0"/><feBlend in2="BackgroundImageFix" mode="normal" result="effect1_dropShadow"/><feBlend in="SourceGraphic" in2="effect1_dropShadow" mode="normal" result="shape"/></filter><path clip-rule="evenodd" d="m240.5 166c-1.681 0-3.085-1.185-3.423-2.765l-216.0847-.969c.0051.077.0077.155.0077.234 0 1.933-1.567 3.5-3.5 3.5s-3.5-1.567-3.5-3.5c0-1.759 1.2974-3.215 2.9874-3.463l-12.23626-138.5144-.00004-.0006-1.2293-13.52208-.02189.00007c-1.933 0-3.50000179-1.567-3.50000171-3.5.00000009-1.933 1.56700171-3.5000006 3.50000171-3.50000051 1.933.00000008 3.5 1.56700051 3.5 3.50000051 0 1.75613-1.29337 3.21018-2.97952 3.46156l1.22871 13.51575.00004.0007 12.23696 138.522h.0139c1.681 0 3.0852 1.185 3.4228 2.765l216.0852.969c-.005-.077-.008-.155-.008-.234 0-1.933 1.567-3.5 3.5-3.5s3.5 1.567 3.5 3.5-1.567 3.5-3.5 3.5z" fill="#fff" fill-rule="evenodd"/><circle cx="3.50024" cy="3.5" fill="#c4c4c4" r="2.5" transform="matrix(0 1 -1 0 7.00024 -.00024)"/><circle cx="3.50024" cy="3.5" fill="#b39c75" r="2.5" transform="matrix(0 1 -1 0 7.00024 -.00024)"/><path d="m274.62 133.966h-4.32v11.034h-1.764v-11.034h-4.302v-1.566h10.386zm4.24 1.386c.972 0 1.848.21 2.628.63.792.42 1.41 1.002 1.854 1.746s.666 1.578.666 2.502c0 .936-.222 1.776-.666 2.52s-1.062 1.326-1.854 1.746c-.78.42-1.656.63-2.628.63-.84 0-1.602-.132-2.286-.396-.672-.264-1.242-.648-1.71-1.152l1.008-1.008c.768.756 1.74 1.134 2.916 1.134.936 0 1.734-.264 2.394-.792.66-.54 1.056-1.242 1.188-2.106h-4.788v-1.278h4.752c-.156-.828-.558-1.494-1.206-1.998-.648-.516-1.428-.774-2.34-.774-1.164 0-2.136.384-2.916 1.152l-1.008-.99c.468-.516 1.044-.906 1.728-1.17s1.44-.396 2.268-.396zm7.96.108h1.728v4.05h5.436v-4.05h1.728v9.54h-1.728v-3.996h-5.436v3.996h-1.728zm26.32 0-4.626 10.494c-.408.972-.888 1.656-1.44 2.052-.54.396-1.194.594-1.962.594-.468 0-.924-.078-1.368-.234-.432-.144-.792-.36-1.08-.648l.738-1.296c.492.468 1.062.702 1.71.702.42 0 .768-.114 1.044-.342.288-.216.546-.594.774-1.134l.306-.666-4.212-9.522h1.8l3.33 7.632 3.294-7.632zm8.627 4.59c1.236.312 1.854 1.086 1.854 2.322 0 .84-.318 1.488-.954 1.944-.624.456-1.56.684-2.808.684h-4.59v-9.54h4.428c1.128 0 2.01.216 2.646.648.636.42.954 1.02.954 1.8 0 .504-.138.942-.414 1.314-.264.36-.636.636-1.116.828zm-4.806-.486h2.592c.66 0 1.158-.12 1.494-.36.348-.24.522-.588.522-1.044 0-.912-.672-1.368-2.016-1.368h-2.592zm2.772 4.104c.72 0 1.26-.114 1.62-.342s.54-.582.54-1.062c0-.492-.168-.858-.504-1.098-.324-.24-.84-.36-1.548-.36h-2.88v2.862zm15.575-3.384c0 .132-.012.306-.036.522h-7.74c.108.84.474 1.518 1.098 2.034.636.504 1.422.756 2.358.756 1.14 0 2.058-.384 2.754-1.152l.954 1.116c-.432.504-.972.888-1.62 1.152-.636.264-1.35.396-2.142.396-1.008 0-1.902-.204-2.682-.612-.78-.42-1.386-1.002-1.818-1.746-.42-.744-.63-1.584-.63-2.52 0-.924.204-1.758.612-2.502.42-.744.99-1.32 1.71-1.728.732-.42 1.554-.63 2.466-.63s1.722.21 2.43.63c.72.408 1.278.984 1.674 1.728.408.744.612 1.596.612 2.556zm-4.716-3.456c-.828 0-1.524.252-2.088.756-.552.504-.876 1.164-.972 1.98h6.12c-.096-.804-.426-1.458-.99-1.962-.552-.516-1.242-.774-2.07-.774zm15.788-1.368v9.54h-1.728v-8.028h-4.104l-.108 2.124c-.06 1.284-.174 2.358-.342 3.222-.168.852-.444 1.536-.828 2.052s-.918.774-1.602.774c-.312 0-.666-.054-1.062-.162l.108-1.458c.156.036.3.054.432.054.48 0 .84-.21 1.08-.63s.396-.918.468-1.494.138-1.398.198-2.466l.162-3.528zm3.701 0h1.728v6.948l5.85-6.948h1.566v9.54h-1.728v-6.948l-5.832 6.948h-1.584zm20.472 0v9.54h-1.728v-3.852c-1.032.48-2.058.72-3.078.72-1.188 0-2.106-.276-2.754-.828s-.972-1.38-.972-2.484v-3.096h1.728v2.988c0 .66.204 1.158.612 1.494.42.336 1.002.504 1.746.504.84 0 1.746-.21 2.718-.63v-4.356zm12.337 4.824c0 .132-.012.306-.036.522h-7.74c.108.84.474 1.518 1.098 2.034.636.504 1.422.756 2.358.756 1.14 0 2.058-.384 2.754-1.152l.954 1.116c-.432.504-.972.888-1.62 1.152-.636.264-1.35.396-2.142.396-1.008 0-1.902-.204-2.682-.612-.78-.42-1.386-1.002-1.818-1.746-.42-.744-.63-1.584-.63-2.52 0-.924.204-1.758.612-2.502.42-.744.99-1.32 1.71-1.728.732-.42 1.554-.63 2.466-.63s1.722.21 2.43.63c.72.408 1.278.984 1.674 1.728.408.744.612 1.596.612 2.556zm-4.716-3.456c-.828 0-1.524.252-2.088.756-.552.504-.876 1.164-.972 1.98h6.12c-.096-.804-.426-1.458-.99-1.962-.552-.516-1.242-.774-2.07-.774zm7.757-1.368h1.728v4.05h5.436v-4.05h1.728v9.54h-1.728v-3.996h-5.436v3.996h-1.728zm12.612 0h1.728v4.05h5.436v-4.05h1.728v9.54h-1.728v-3.996h-5.436v3.996h-1.728zm16.698 9.648c-.948 0-1.8-.21-2.556-.63s-1.35-.996-1.782-1.728c-.42-.744-.63-1.584-.63-2.52s.21-1.77.63-2.502c.432-.744 1.026-1.32 1.782-1.728.756-.42 1.608-.63 2.556-.63s1.794.21 2.538.63c.756.408 1.344.984 1.764 1.728.432.732.648 1.566.648 2.502s-.216 1.776-.648 2.52c-.42.732-1.008 1.308-1.764 1.728-.744.42-1.59.63-2.538.63zm0-1.512c.612 0 1.158-.138 1.638-.414.492-.288.876-.684 1.152-1.188.276-.516.414-1.104.414-1.764s-.138-1.242-.414-1.746c-.276-.516-.66-.912-1.152-1.188-.48-.276-1.026-.414-1.638-.414s-1.164.138-1.656.414c-.48.276-.864.672-1.152 1.188-.276.504-.414 1.086-.414 1.746s.138 1.248.414 1.764c.288.504.672.9 1.152 1.188.492.276 1.044.414 1.656.414zm14.825-6.624h-5.292v8.028h-1.728v-9.54h7.02zm5.793 8.136c-.948 0-1.8-.21-2.556-.63s-1.35-.996-1.782-1.728c-.42-.744-.63-1.584-.63-2.52s.21-1.77.63-2.502c.432-.744 1.026-1.32 1.782-1.728.756-.42 1.608-.63 2.556-.63s1.794.21 2.538.63c.756.408 1.344.984 1.764 1.728.432.732.648 1.566.648 2.502s-.216 1.776-.648 2.52c-.42.732-1.008 1.308-1.764 1.728-.744.42-1.59.63-2.538.63zm0-1.512c.612 0 1.158-.138 1.638-.414.492-.288.876-.684 1.152-1.188.276-.516.414-1.104.414-1.764s-.138-1.242-.414-1.746c-.276-.516-.66-.912-1.152-1.188-.48-.276-1.026-.414-1.638-.414s-1.164.138-1.656.414c-.48.276-.864.672-1.152 1.188-.276.504-.414 1.086-.414 1.746s.138 1.248.414 1.764c.288.504.672.9 1.152 1.188.492.276 1.044.414 1.656.414zm22.701-.108v3.726h-1.62v-2.214h-7.974v2.214h-1.638v-3.726h.504c.612-.036 1.032-.468 1.26-1.296s.384-1.998.468-3.51l.144-3.222h7.398v8.028zm-7.416-4.68c-.048 1.2-.15 2.196-.306 2.988-.144.78-.414 1.344-.81 1.692h5.346v-6.516h-4.14zm10.028-3.348h1.728v6.948l5.85-6.948h1.566v9.54h-1.728v-6.948l-5.832 6.948h-1.584zm16.26-.09c1.32 0 2.328.324 3.024.972.708.648 1.062 1.614 1.062 2.898v5.76h-1.638v-1.26c-.288.444-.702.786-1.242 1.026-.528.228-1.158.342-1.89.342-1.068 0-1.926-.258-2.574-.774-.636-.516-.954-1.194-.954-2.034s.306-1.512.918-2.016c.612-.516 1.584-.774 2.916-.774h2.736v-.342c0-.744-.216-1.314-.648-1.71s-1.068-.594-1.908-.594c-.564 0-1.116.096-1.656.288-.54.18-.996.426-1.368.738l-.72-1.296c.492-.396 1.08-.696 1.764-.9.684-.216 1.41-.324 2.178-.324zm-.396 8.406c.66 0 1.23-.144 1.71-.432.48-.3.828-.72 1.044-1.26v-1.332h-2.664c-1.464 0-2.196.492-2.196 1.476 0 .48.186.858.558 1.134s.888.414 1.548.414zm18.951-8.316v9.54h-1.566v-6.966l-3.564 5.886h-.756l-3.528-5.904v6.984h-1.584v-9.54h1.782l3.744 6.444 3.852-6.444zm12.346 4.824c0 .132-.012.306-.036.522h-7.74c.108.84.474 1.518 1.098 2.034.636.504 1.422.756 2.358.756 1.14 0 2.058-.384 2.754-1.152l.954 1.116c-.432.504-.972.888-1.62 1.152-.636.264-1.35.396-2.142.396-1.008 0-1.902-.204-2.682-.612-.78-.42-1.386-1.002-1.818-1.746-.42-.744-.63-1.584-.63-2.52 0-.924.204-1.758.612-2.502.42-.744.99-1.32 1.71-1.728.732-.42 1.554-.63 2.466-.63s1.722.21 2.43.63c.72.408 1.278.984 1.674 1.728.408.744.612 1.596.612 2.556zm-4.716-3.456c-.828 0-1.524.252-2.088.756-.552.504-.876 1.164-.972 1.98h6.12c-.096-.804-.426-1.458-.99-1.962-.552-.516-1.242-.774-2.07-.774zm14.462.144h-3.492v8.028h-1.728v-8.028h-3.492v-1.512h8.712zm7.185-1.602c.924 0 1.752.204 2.484.612s1.302.978 1.71 1.71c.42.732.63 1.578.63 2.538s-.21 1.812-.63 2.556c-.408.732-.978 1.302-1.71 1.71s-1.56.612-2.484.612c-.684 0-1.314-.132-1.89-.396-.564-.264-1.044-.648-1.44-1.152v4.932h-1.728v-13.032h1.656v1.512c.384-.528.87-.924 1.458-1.188.588-.276 1.236-.414 1.944-.414zm-.144 8.226c.612 0 1.158-.138 1.638-.414.492-.288.876-.684 1.152-1.188.288-.516.432-1.104.432-1.764s-.144-1.242-.432-1.746c-.276-.516-.66-.912-1.152-1.188-.48-.276-1.026-.414-1.638-.414-.6 0-1.146.144-1.638.432-.48.276-.864.666-1.152 1.17-.276.504-.414 1.086-.414 1.746s.138 1.248.414 1.764c.276.504.66.9 1.152 1.188.492.276 1.038.414 1.638.414zm11.153-8.226c1.32 0 2.328.324 3.024.972.708.648 1.062 1.614 1.062 2.898v5.76h-1.638v-1.26c-.288.444-.702.786-1.242 1.026-.528.228-1.158.342-1.89.342-1.068 0-1.926-.258-2.574-.774-.636-.516-.954-1.194-.954-2.034s.306-1.512.918-2.016c.612-.516 1.584-.774 2.916-.774h2.736v-.342c0-.744-.216-1.314-.648-1.71s-1.068-.594-1.908-.594c-.564 0-1.116.096-1.656.288-.54.18-.996.426-1.368.738l-.72-1.296c.492-.396 1.08-.696 1.764-.9.684-.216 1.41-.324 2.178-.324zm-.396 8.406c.66 0 1.23-.144 1.71-.432.48-.3.828-.72 1.044-1.26v-1.332h-2.664c-1.464 0-2.196.492-2.196 1.476 0 .48.186.858.558 1.134s.888.414 1.548.414zm-259.205 13.684v9.54h-1.566v-6.966l-3.564 5.886h-.756l-3.528-5.904v6.984h-1.584v-9.54h1.782l3.744 6.444 3.852-6.444zm7.809 9.648c-.948 0-1.8-.21-2.556-.63s-1.35-.996-1.782-1.728c-.42-.744-.63-1.584-.63-2.52s.21-1.77.63-2.502c.432-.744 1.026-1.32 1.782-1.728.756-.42 1.608-.63 2.556-.63s1.794.21 2.538.63c.756.408 1.344.984 1.764 1.728.432.732.648 1.566.648 2.502s-.216 1.776-.648 2.52c-.42.732-1.008 1.308-1.764 1.728-.744.42-1.59.63-2.538.63zm0-1.512c.612 0 1.158-.138 1.638-.414.492-.288.876-.684 1.152-1.188.276-.516.414-1.104.414-1.764s-.138-1.242-.414-1.746c-.276-.516-.66-.912-1.152-1.188-.48-.276-1.026-.414-1.638-.414s-1.164.138-1.656.414c-.48.276-.864.672-1.152 1.188-.276.504-.414 1.086-.414 1.746s.138 1.248.414 1.764c.288.504.672.9 1.152 1.188.492.276 1.044.414 1.656.414zm21.396-8.136v9.54h-13.59v-9.54h1.728v8.028h4.212v-8.028h1.728v8.028h4.194v-8.028zm1.422 8.028v3.546h-1.62v-2.034h-1.602v-1.512zm2.293-8.028h1.728v4.05h5.436v-4.05h1.728v9.54h-1.728v-3.996h-5.436v3.996h-1.728zm16.914 3.24c1.2.012 2.118.288 2.754.828s.954 1.302.954 2.286c0 1.032-.348 1.83-1.044 2.394-.684.552-1.668.822-2.952.81l-4.014-.018v-9.54h1.728v3.222zm5.13-3.24h1.728v9.54h-1.728zm-5.544 8.244c.78.012 1.368-.144 1.764-.468.408-.324.612-.804.612-1.44 0-.624-.198-1.08-.594-1.368s-.99-.438-1.782-.45l-2.16-.036v3.744zm10.991-8.244h1.728v6.948l5.85-6.948h1.566v9.54h-1.728v-6.948l-5.832 6.948h-1.584zm4.464-1.242c-.888 0-1.578-.21-2.07-.63-.492-.432-.744-1.05-.756-1.854h1.17c.012.444.162.804.45 1.08.3.264.696.396 1.188.396s.888-.132 1.188-.396c.3-.276.456-.636.468-1.08h1.206c-.012.804-.27 1.422-.774 1.854-.504.42-1.194.63-2.07.63zm17.746 10.89c-.972 0-1.842-.21-2.61-.63-.756-.42-1.35-.996-1.782-1.728-.432-.744-.648-1.584-.648-2.52s.216-1.77.648-2.502c.432-.744 1.026-1.32 1.782-1.728.768-.42 1.638-.63 2.61-.63.864 0 1.632.174 2.304.522.684.348 1.212.852 1.584 1.512l-1.314.846c-.3-.456-.672-.798-1.116-1.026s-.936-.342-1.476-.342c-.624 0-1.188.138-1.692.414-.492.276-.882.672-1.17 1.188-.276.504-.414 1.086-.414 1.746 0 .672.138 1.266.414 1.782.288.504.678.894 1.17 1.17.504.276 1.068.414 1.692.414.54 0 1.032-.114 1.476-.342s.816-.57 1.116-1.026l1.314.828c-.372.66-.9 1.17-1.584 1.53-.672.348-1.44.522-2.304.522zm18.739 12.262c.924 0 1.752.204 2.484.612s1.302.978 1.71 1.71c.42.732.63 1.578.63 2.538s-.21 1.812-.63 2.556c-.408.732-.978 1.302-1.71 1.71s-1.56.612-2.484.612c-.684 0-1.314-.132-1.89-.396-.564-.264-1.044-.648-1.44-1.152v4.932h-1.728v-13.032h1.656v1.512c.384-.528.87-.924 1.458-1.188.588-.276 1.236-.414 1.944-.414zm-.144 8.226c.612 0 1.158-.138 1.638-.414.492-.288.876-.684 1.152-1.188.288-.516.432-1.104.432-1.764s-.144-1.242-.432-1.746c-.276-.516-.66-.912-1.152-1.188-.48-.276-1.026-.414-1.638-.414-.6 0-1.146.144-1.638.432-.48.276-.864.666-1.152 1.17-.276.504-.414 1.086-.414 1.746s.138 1.248.414 1.764c.276.504.66.9 1.152 1.188.492.276 1.038.414 1.638.414zm11.152-8.226c1.32 0 2.328.324 3.024.972.708.648 1.062 1.614 1.062 2.898v5.76h-1.638v-1.26c-.288.444-.702.786-1.242 1.026-.528.228-1.158.342-1.89.342-1.068 0-1.926-.258-2.574-.774-.636-.516-.954-1.194-.954-2.034s.306-1.512.918-2.016c.612-.516 1.584-.774 2.916-.774h2.736v-.342c0-.744-.216-1.314-.648-1.71s-1.068-.594-1.908-.594c-.564 0-1.116.096-1.656.288-.54.18-.996.426-1.368.738l-.72-1.296c.492-.396 1.08-.696 1.764-.9.684-.216 1.41-.324 2.178-.324zm-.396 8.406c.66 0 1.23-.144 1.71-.432.48-.3.828-.72 1.044-1.26v-1.332h-2.664c-1.464 0-2.196.492-2.196 1.476 0 .48.186.858.558 1.134s.888.414 1.548.414zm12.814-7.992c.888 0 1.68.198 2.376.594s1.236.948 1.62 1.656c.396.696.594 1.494.594 2.394 0 .924-.21 1.746-.63 2.466-.408.708-.99 1.26-1.746 1.656-.744.396-1.596.594-2.556.594-1.62 0-2.874-.552-3.762-1.656-.876-1.116-1.314-2.682-1.314-4.698 0-1.956.402-3.486 1.206-4.59.804-1.116 2.034-1.854 3.69-2.214l4.356-.972.252 1.584-4.014.864c-1.248.276-2.178.744-2.79 1.404s-.96 1.608-1.044 2.844c.408-.612.936-1.086 1.584-1.422s1.374-.504 2.178-.504zm-.306 7.92c.612 0 1.152-.138 1.62-.414.48-.276.852-.654 1.116-1.134.264-.492.396-1.05.396-1.674 0-.948-.288-1.71-.864-2.286s-1.332-.864-2.268-.864-1.698.288-2.286.864c-.576.576-.864 1.338-.864 2.286 0 .624.132 1.182.396 1.674.276.48.654.858 1.134 1.134s1.02.414 1.62.414zm11.81 1.404c-.948 0-1.8-.21-2.556-.63s-1.35-.996-1.782-1.728c-.42-.744-.63-1.584-.63-2.52s.21-1.77.63-2.502c.432-.744 1.026-1.32 1.782-1.728.756-.42 1.608-.63 2.556-.63s1.794.21 2.538.63c.756.408 1.344.984 1.764 1.728.432.732.648 1.566.648 2.502s-.216 1.776-.648 2.52c-.42.732-1.008 1.308-1.764 1.728-.744.42-1.59.63-2.538.63zm0-1.512c.612 0 1.158-.138 1.638-.414.492-.288.876-.684 1.152-1.188.276-.516.414-1.104.414-1.764s-.138-1.242-.414-1.746c-.276-.516-.66-.912-1.152-1.188-.48-.276-1.026-.414-1.638-.414s-1.164.138-1.656.414c-.48.276-.864.672-1.152 1.188-.276.504-.414 1.086-.414 1.746s.138 1.248.414 1.764c.288.504.672.9 1.152 1.188.492.276 1.044.414 1.656.414zm14.564-6.624h-3.492v8.028h-1.728v-8.028h-3.492v-1.512h8.712zm6.429 1.728c1.2.012 2.118.288 2.754.828s.954 1.302.954 2.286c0 1.032-.348 1.83-1.044 2.394-.684.552-1.668.822-2.952.81l-4.014-.018v-9.54h1.728v3.222zm5.13-3.24h1.728v9.54h-1.728zm-5.544 8.244c.78.012 1.368-.144 1.764-.468.408-.324.612-.804.612-1.44 0-.624-.198-1.08-.594-1.368s-.99-.438-1.782-.45l-2.16-.036v3.744zm11.369 1.404c-.336 0-.624-.114-.864-.342-.24-.24-.36-.54-.36-.9 0-.348.12-.636.36-.864.24-.24.528-.36.864-.36s.618.114.846.342.342.522.342.882-.12.66-.36.9c-.228.228-.504.342-.828.342z" fill="#fff"/><g filter="url(#a)"><path d="m271.106 179.835c.975 0 1.849.215 2.622.646s1.374 1.032 1.805 1.805c.443.773.665 1.666.665 2.679s-.222 1.913-.665 2.698c-.431.773-1.032 1.374-1.805 1.805s-1.647.646-2.622.646c-.722 0-1.387-.139-1.995-.418-.595-.279-1.102-.684-1.52-1.216v5.206h-1.824v-13.756h1.748v1.596c.405-.557.918-.975 1.539-1.254.621-.291 1.305-.437 2.052-.437zm-.152 8.683c.646 0 1.222-.146 1.729-.437.519-.304.925-.722 1.216-1.254.304-.545.456-1.165.456-1.862s-.152-1.311-.456-1.843c-.291-.545-.697-.963-1.216-1.254-.507-.291-1.083-.437-1.729-.437-.633 0-1.21.152-1.729.456-.507.291-.912.703-1.216 1.235-.291.532-.437 1.146-.437 1.843s.146 1.317.437 1.862c.291.532.697.95 1.216 1.254.519.291 1.096.437 1.729.437zm17.375-3.496c0 .139-.013.323-.038.551h-8.17c.114.887.5 1.602 1.159 2.147.671.532 1.501.798 2.489.798 1.203 0 2.172-.405 2.907-1.216l1.007 1.178c-.456.532-1.026.937-1.71 1.216-.671.279-1.425.418-2.261.418-1.064 0-2.008-.215-2.831-.646-.823-.443-1.463-1.058-1.919-1.843-.443-.785-.665-1.672-.665-2.66 0-.975.215-1.856.646-2.641.443-.785 1.045-1.393 1.805-1.824.773-.443 1.64-.665 2.603-.665s1.818.222 2.565.665c.76.431 1.349 1.039 1.767 1.824.431.785.646 1.685.646 2.698zm-4.978-3.648c-.874 0-1.609.266-2.204.798-.583.532-.925 1.229-1.026 2.09h6.46c-.101-.849-.45-1.539-1.045-2.071-.583-.545-1.311-.817-2.185-.817zm12.577 8.74c-1.026 0-1.945-.222-2.755-.665-.798-.443-1.425-1.051-1.881-1.824-.456-.785-.684-1.672-.684-2.66s.228-1.868.684-2.641c.456-.785 1.083-1.393 1.881-1.824.81-.443 1.729-.665 2.755-.665.912 0 1.722.184 2.432.551.722.367 1.279.899 1.672 1.596l-1.387.893c-.317-.481-.71-.842-1.178-1.083-.469-.241-.988-.361-1.558-.361-.659 0-1.254.146-1.786.437-.52.291-.931.709-1.235 1.254-.292.532-.437 1.146-.437 1.843 0 .709.145 1.336.437 1.881.304.532.715.944 1.235 1.235.532.291 1.127.437 1.786.437.57 0 1.089-.12 1.558-.361.468-.241.861-.602 1.178-1.083l1.387.874c-.393.697-.95 1.235-1.672 1.615-.71.367-1.52.551-2.432.551zm15.702-10.184-4.883 11.077c-.43 1.026-.937 1.748-1.52 2.166-.57.418-1.26.627-2.071.627-.494 0-.975-.082-1.444-.247-.456-.152-.836-.38-1.14-.684l.779-1.368c.52.494 1.121.741 1.805.741.444 0 .811-.12 1.102-.361.304-.228.577-.627.817-1.197l.323-.703-4.446-10.051h1.9l3.515 8.056 3.477-8.056zm7.587-.095c.975 0 1.849.215 2.622.646.772.431 1.374 1.032 1.805 1.805.443.773.665 1.666.665 2.679s-.222 1.913-.665 2.698c-.431.773-1.033 1.374-1.805 1.805-.773.431-1.647.646-2.622.646-.722 0-1.387-.139-1.995-.418-.596-.279-1.102-.684-1.52-1.216v5.206h-1.824v-13.756h1.748v1.596c.405-.557.918-.975 1.539-1.254.62-.291 1.304-.437 2.052-.437zm-.152 8.683c.646 0 1.222-.146 1.729-.437.519-.304.924-.722 1.216-1.254.304-.545.456-1.165.456-1.862s-.152-1.311-.456-1.843c-.292-.545-.697-.963-1.216-1.254-.507-.291-1.083-.437-1.729-.437-.634 0-1.21.152-1.729.456-.507.291-.912.703-1.216 1.235-.292.532-.437 1.146-.437 1.843s.145 1.317.437 1.862c.291.532.696.95 1.216 1.254.519.291 1.095.437 1.729.437zm12.663 1.596c-1.026 0-1.944-.222-2.755-.665-.798-.443-1.425-1.051-1.881-1.824-.456-.785-.684-1.672-.684-2.66s.228-1.868.684-2.641c.456-.785 1.083-1.393 1.881-1.824.811-.443 1.729-.665 2.755-.665.912 0 1.723.184 2.432.551.722.367 1.279.899 1.672 1.596l-1.387.893c-.317-.481-.709-.842-1.178-1.083s-.988-.361-1.558-.361c-.659 0-1.254.146-1.786.437-.519.291-.931.709-1.235 1.254-.291.532-.437 1.146-.437 1.843 0 .709.146 1.336.437 1.881.304.532.716.944 1.235 1.235.532.291 1.127.437 1.786.437.57 0 1.089-.12 1.558-.361s.861-.602 1.178-1.083l1.387.874c-.393.697-.95 1.235-1.672 1.615-.709.367-1.52.551-2.432.551zm11.01 0c-1.001 0-1.9-.222-2.698-.665s-1.425-1.051-1.881-1.824c-.443-.785-.665-1.672-.665-2.66s.222-1.868.665-2.641c.456-.785 1.083-1.393 1.881-1.824.798-.443 1.697-.665 2.698-.665s1.894.222 2.679.665c.798.431 1.419 1.039 1.862 1.824.456.773.684 1.653.684 2.641s-.228 1.875-.684 2.66c-.443.773-1.064 1.381-1.862 1.824-.785.443-1.678.665-2.679.665zm0-1.596c.646 0 1.222-.146 1.729-.437.519-.304.925-.722 1.216-1.254.291-.545.437-1.165.437-1.862s-.146-1.311-.437-1.843c-.291-.545-.697-.963-1.216-1.254-.507-.291-1.083-.437-1.729-.437s-1.229.146-1.748.437c-.507.291-.912.709-1.216 1.254-.291.532-.437 1.146-.437 1.843s.146 1.317.437 1.862c.304.532.709.95 1.216 1.254.519.291 1.102.437 1.748.437zm19.848-8.588v10.07h-1.653v-7.353l-3.762 6.213h-.798l-3.724-6.232v7.372h-1.672v-10.07h1.881l3.952 6.802 4.066-6.802z" fill="#f6c87a"/></g><g filter="url(#b)"><path d="m373.767 156.93h1.824v4.275h5.738v-4.275h1.824v10.07h-1.824v-4.218h-5.738v4.218h-1.824zm22.414 5.092c0 .139-.013.323-.038.551h-8.17c.114.887.5 1.602 1.159 2.147.671.532 1.501.798 2.489.798 1.203 0 2.172-.405 2.907-1.216l1.007 1.178c-.456.532-1.026.937-1.71 1.216-.672.279-1.425.418-2.261.418-1.064 0-2.008-.215-2.831-.646-.824-.443-1.463-1.058-1.919-1.843-.444-.785-.665-1.672-.665-2.66 0-.975.215-1.856.646-2.641.443-.785 1.045-1.393 1.805-1.824.772-.443 1.64-.665 2.603-.665.962 0 1.817.222 2.565.665.76.431 1.349 1.039 1.767 1.824.43.785.646 1.685.646 2.698zm-4.978-3.648c-.874 0-1.609.266-2.204.798-.583.532-.925 1.229-1.026 2.09h6.46c-.102-.849-.45-1.539-1.045-2.071-.583-.545-1.311-.817-2.185-.817zm12.5 8.74c-1 0-1.9-.222-2.698-.665s-1.425-1.051-1.881-1.824c-.443-.785-.665-1.672-.665-2.66s.222-1.868.665-2.641c.456-.785 1.083-1.393 1.881-1.824.798-.443 1.698-.665 2.698-.665 1.001 0 1.894.222 2.679.665.798.431 1.419 1.039 1.862 1.824.456.773.684 1.653.684 2.641s-.228 1.875-.684 2.66c-.443.773-1.064 1.381-1.862 1.824-.785.443-1.678.665-2.679.665zm0-1.596c.646 0 1.223-.146 1.729-.437.52-.304.925-.722 1.216-1.254.292-.545.437-1.165.437-1.862s-.145-1.311-.437-1.843c-.291-.545-.696-.963-1.216-1.254-.506-.291-1.083-.437-1.729-.437s-1.228.146-1.748.437c-.506.291-.912.709-1.216 1.254-.291.532-.437 1.146-.437 1.843s.146 1.317.437 1.862c.304.532.71.95 1.216 1.254.52.291 1.102.437 1.748.437zm15.649-6.992h-5.586v8.474h-1.824v-10.07h7.41zm7.587-1.691c.975 0 1.849.215 2.622.646.772.431 1.374 1.032 1.805 1.805.443.773.665 1.666.665 2.679s-.222 1.913-.665 2.698c-.431.773-1.033 1.374-1.805 1.805-.773.431-1.647.646-2.622.646-.722 0-1.387-.139-1.995-.418-.596-.279-1.102-.684-1.52-1.216v5.206h-1.824v-13.756h1.748v1.596c.405-.557.918-.975 1.539-1.254.62-.291 1.304-.437 2.052-.437zm-.152 8.683c.646 0 1.222-.146 1.729-.437.519-.304.924-.722 1.216-1.254.304-.545.456-1.165.456-1.862s-.152-1.311-.456-1.843c-.292-.545-.697-.963-1.216-1.254-.507-.291-1.083-.437-1.729-.437-.634 0-1.21.152-1.729.456-.507.291-.912.703-1.216 1.235-.292.532-.437 1.146-.437 1.843s.145 1.317.437 1.862c.291.532.696.95 1.216 1.254.519.291 1.095.437 1.729.437zm11.772-8.683c1.393 0 2.457.342 3.192 1.026.747.684 1.121 1.704 1.121 3.059v6.08h-1.729v-1.33c-.304.469-.741.83-1.311 1.083-.558.241-1.223.361-1.995.361-1.128 0-2.033-.272-2.717-.817-.672-.545-1.007-1.26-1.007-2.147s.323-1.596.969-2.128c.646-.545 1.672-.817 3.078-.817h2.888v-.361c0-.785-.228-1.387-.684-1.805s-1.128-.627-2.014-.627c-.596 0-1.178.101-1.748.304-.57.19-1.052.45-1.444.779l-.76-1.368c.519-.418 1.14-.735 1.862-.95.722-.228 1.488-.342 2.299-.342zm-.418 8.873c.696 0 1.298-.152 1.805-.456.506-.317.874-.76 1.102-1.33v-1.406h-2.812c-1.546 0-2.318.519-2.318 1.558 0 .507.196.906.589 1.197.392.291.937.437 1.634.437zm8.395-8.778h1.824v4.275h5.738v-4.275h1.824v10.07h-1.824v-4.218h-5.738v4.218h-1.824zm13.313 0h1.824v7.334l6.175-7.334h1.653v10.07h-1.824v-7.334l-6.156 7.334h-1.672zm21.609 0v10.07h-1.824v-4.066c-1.089.507-2.172.76-3.249.76-1.254 0-2.223-.291-2.907-.874s-1.026-1.457-1.026-2.622v-3.268h1.824v3.154c0 .697.216 1.222.646 1.577.444.355 1.058.532 1.843.532.887 0 1.843-.222 2.869-.665v-4.598zm13.022 5.092c0 .139-.012.323-.038.551h-8.17c.114.887.501 1.602 1.159 2.147.672.532 1.501.798 2.489.798 1.204 0 2.173-.405 2.907-1.216l1.007 1.178c-.456.532-1.026.937-1.71 1.216-.671.279-1.425.418-2.261.418-1.064 0-2.007-.215-2.831-.646-.823-.443-1.463-1.058-1.919-1.843-.443-.785-.665-1.672-.665-2.66 0-.975.216-1.856.646-2.641.444-.785 1.045-1.393 1.805-1.824.773-.443 1.641-.665 2.603-.665.963 0 1.818.222 2.565.665.76.431 1.349 1.039 1.767 1.824.431.785.646 1.685.646 2.698zm-4.978-3.648c-.874 0-1.608.266-2.204.798-.582.532-.924 1.229-1.026 2.09h6.46c-.101-.849-.449-1.539-1.045-2.071-.582-.545-1.311-.817-2.185-.817zm8.188-1.444h1.824v4.275h5.738v-4.275h1.824v10.07h-1.824v-4.218h-5.738v4.218h-1.824zm13.313 0h1.824v4.275h5.738v-4.275h1.824v10.07h-1.824v-4.218h-5.738v4.218h-1.824zm17.853 3.42c1.267.013 2.236.304 2.907.874.672.57 1.007 1.374 1.007 2.413 0 1.089-.367 1.932-1.102 2.527-.722.583-1.76.868-3.116.855l-4.237-.019v-10.07h1.824v3.401zm5.415-3.42h1.824v10.07h-1.824zm-5.852 8.702c.824.013 1.444-.152 1.862-.494.431-.342.646-.849.646-1.52 0-.659-.209-1.14-.627-1.444s-1.045-.462-1.881-.475l-2.28-.038v3.952zm23.211-8.702v10.07h-1.653v-7.353l-3.762 6.213h-.798l-3.724-6.232v7.372h-1.672v-10.07h1.881l3.952 6.802 4.066-6.802z" fill="#f6c87a"/></g></svg>