<svg fill="none" height="20" viewBox="0 0 139 20" width="139" xmlns="http://www.w3.org/2000/svg"><g clip-rule="evenodd" fill-rule="evenodd"><path d="m2.95681 3.93076c-.9332.20986-1.53708.53205-1.94782 1.03922-.504248.62236-.655952 1.31662-.599598 2.74334.066256 1.67924.368318 2.29578 1.384158 2.82468l.71744.3736 3.86521.0622c4.1652.067 4.3033.0897 4.6582.7645.226.4298.0655 1.3305-.3043 1.707l-.3216.3274-3.20631.0324c-3.51497.0355-3.62878.0164-4.06177-.6842l-.24473-.396-1.44784-.0047-1.44785-.0049.0847145.6531c.1777415 1.3719.7470265 2.1644 1.8316855 2.5501.54032.1922 1.1387.2178 5.07443.2178 5.04547 0 5.31647-.0399 6.14557-.9043.6609-.6891.8598-1.3513.8678-2.8898.011-2.084-.4926-3.10389-1.7231-3.49015-.2914-.09155-1.9265-.16744-4.43456-.20587-3.80653-.05835-3.98439-.07178-4.24795-.31896-.21796-.20439-.27505-.39322-.27505-.90935 0-.57471.04426-.68941.37615-.97353l.37602-.32207h3.10216c2.08803 0 3.20353.04702 3.41243.14393.1731.08024.3758.32779.4581.55979l.1478.41586h1.4498 1.45l-.0838-.59089c-.2233-1.57736-1.0088-2.4102-2.596-2.75255-.8982-.19368-7.56762-.16818-8.45939.03235zm13.07999 6.39844c0 3.3512.0877 3.8756.7865 4.7064.2399.2851.7076.6354 1.0723.8031.6165.2835.7688.2976 3.2143.2976 2.749 0 2.9699-.0431 3.6979-.7204l.275-.256v.5193.5193h1.4669 1.4669v-4.4161-4.41615h-1.4669-1.4669v2.51084c0 2.97631-.1006 3.34181-1.0814 3.92851-.5348.3199-.6569.3403-2.0358.3397-1.2877-.0006-1.5302-.0351-1.9849-.2816-.9234-.5009-1.01-.8339-1.01-3.88013v-2.61732h-1.467-1.4669zm13.9357 1.4532v4.4161h1.4669 1.467l.0029-2.3325c.0039-3.1072.1384-3.616 1.1101-4.1984.3584-.21483.6348-.24879 2.0258-.24879 1.4366 0 1.6481.02786 1.9559.25763.7097.52976.7726.84006.7727 3.81636l.0002 2.7057h1.4669 1.467v-2.8551c0-1.5941-.059-3.1347-.1335-3.48845-.1888-.89529-.7533-1.60262-1.6391-2.05331l-.7334-.37319h-2.4449c-2.3155 0-2.4726.01505-2.9704.28549-.289.15711-.5562.36697-.5937.46649-.1313.34819-.2865.17665-.2865-.31659v-.49759h-1.467-1.4669z" fill="#ea7322"/><path d="m51.1662 2.87123c1.647-1.67107 3.9158-2.601716 6.9297-2.8425168.7754-.0619519 2.9484-.0182275 3.9414.0792308 3.2044.314659 6.1361.958886 12.5124 2.749426 1.2903.36234 2.9325.80933 3.6494.99329 4.3086 1.10576 6.6934 1.23045 8.9932.47022.303-.10014 1.0438-.43308 1.6588-.74542.9965-.50621 1.1454-.56668 1.441-.5857.2873-.01849.3446-.00616.4458.09604.0971.09809.112.15914.0916.37392-.1125 1.18241-2.3379 2.98855-4.5978 3.73144-1.4188.46643-2.7542.64865-4.7481.64792-3.481-.00127-6.9966-.63301-13.3726-2.40306l-3.3364-.92654c-3.2127-.89267-4.9444-1.26059-6.6996-1.42342-2.0336-.1887-3.9267.15377-5.5523 1.0044-1.2559.65724-1.4405.739-1.7376.76997-.429.04478-.5563-.05262-.5563-.42549 0-.46233.23-.846.9374-1.56371zm.5077 5.57467c1.7374-1.42974 3.8987-2.19376 6.6618-2.35502 1.0016-.05842 1.362-.05868 2.3982-.00189 3.3367.18296 6.7687.8638 12.6167 2.50299 4.6406 1.30073 6.1115 1.68002 7.5459 1.94542 3.2816.6071 5.4735.3982 7.6514-.7294.3871-.20045.8634-.44615 1.0585-.54598.2356-.12058.4574-.19096.6603-.20956.281-.02576.3168-.01654.447.11505.1273.12859.1385.16937.111.4039-.1363 1.16299-2.346 2.94979-4.5447 3.67509-3.0512 1.0064-7.1063.8991-12.672-.3355-1.8943-.4202-3.4848-.837-7.8276-2.0514-4.3382-1.21312-6.0215-1.57424-8.023-1.72127-1.9039-.13982-3.632.19939-5.2347 1.02747-.3871.2-.8681.4478-1.0688.5505-.4436.2271-.8845.2835-1.1002.1407-.1276-.0844-.1351-.1117-.1157-.4199.0164-.259.0594-.3947.2013-.6339.222-.37434.7633-.96947 1.2346-1.3573zm-.132 6.1885c1.6472-1.3972 3.5879-2.1645 6.1421-2.4282.7589-.0784 3.0769-.066 4.0666.0217 3.2962.292 6.1428.9084 12.7991 2.7715 5.3608 1.5006 7.0958 1.8658 9.15 1.9265 2.0324.06 3.3153-.2477 5.2771-1.2656.9679-.5023 1.0474-.5338 1.347-.5356.273-.0016.3327.0159.4182.1225.3002.3743-.1191 1.2099-1.0341 2.0607-1.1386 1.0586-2.6613 1.8606-4.2881 2.2584-2.0836.5096-4.4074.5678-7.4553.1868-2.7925-.349-5.8265-1.0384-11.1829-2.5408-4.2272-1.1857-5.4873-1.5011-7.0706-1.7697-1.213-.2059-1.8874-.256-3.061-.2273-1.8744.0457-2.8978.3379-4.8247 1.3778-.5993.3234-.7099.365-1.0308.3882-.4622.0335-.5657-.0433-.5657-.4194 0-.4996.5069-1.2437 1.3131-1.9275z" fill="#de1023"/><path d="m100.642 10.8422c-.9122-3.53274-1.673-6.4901-1.6907-6.57186l-.0324-.14861h1.2271 1.228l.052.19756c.028.10867.641 2.6035 1.361 5.54416.72 2.94065 1.321 5.35795 1.334 5.37185.014.0139.042-.0027.062-.0369.02-.0341.705-2.5403 1.522-5.56927l1.486-5.50718 1.419-.00011 1.419-.00011.077.27658c.043.15214.666 2.52864 1.386 5.28118 1.408 5.38841 1.451 5.55941 1.491 5.55871.003-.0001.006-.001.009-.001.021 0 .671-2.5008 1.445-5.55729l1.408-5.55728 1.244-.00042 1.244-.00048-.036.14488c-.055.22847-3.31 12.44009-3.398 12.74859l-.078.2766h-1.795c-.987 0-1.795-.0115-1.795-.0256 0-.0722-2.573-9.91638-2.609-9.98365-.038-.07023-.046-.07023-.07 0-.025.07169-2.5 9.25745-2.637 9.78605l-.058.2245-1.779-.0138-1.778-.0139zm16.076 6.3837c.022-.0592 4.241-12.88059 4.29-13.03832.016-.05104.431-.06585 1.843-.06585h1.821l.086.25024c.389 1.12619 4.303 12.83593 4.303 12.87253 0 .0266-.542.0473-1.239.0473h-1.238l-.425-1.2248-.424-1.2248h-2.829-2.829l-.33 1.0009c-.181.5505-.367 1.1017-.412 1.2248l-.084.2239h-1.278c-1.001 0-1.274-.0143-1.255-.0659zm12.674-8.99232c-1.28-2.21805-2.337-4.051-2.349-4.07318-.012-.02223.616-.03408 1.395-.02634l1.418.01401 1.53 2.79163c.842 1.53537 1.55 2.79811 1.573 2.80601.024.00791.73-1.21717 1.57-2.72241.841-1.50523 1.555-2.77424 1.588-2.82007.053-.07301.235-.08155 1.472-.06922l1.411.01406-2.387 4.03004-2.388 4.02999-.001 2.5419-.001 2.5418h-1.252-1.251v-2.5127-2.5126zm-4.241 4.62032c0-.0359-.498-1.5768-1.108-3.42416-.609-1.84739-1.124-3.35884-1.144-3.35884-.038 0-2.232 6.6973-2.232 6.8136 0 .0191 1.009.0348 2.242.0348 1.751 0 2.242-.0143 2.242-.0654z" fill="#939393"/></g></svg>